<mxfile host="app.diagrams.net" modified="2023-10-19T18:42:45.391Z" agent="Mozilla/5.0 (Windows NT 10.0; Win64; x64; rv:109.0) Gecko/20100101 Firefox/119.0" etag="GI6ZnI3it49y92NQx9Mu" version="22.0.5" type="device">
  <diagram name="Page-1" id="10a91c8b-09ff-31b1-d368-03940ed4cc9e">
    <mxGraphModel dx="7288" dy="3946" grid="1" gridSize="10" guides="1" tooltips="1" connect="1" arrows="1" fold="1" page="1" pageScale="1" pageWidth="1100" pageHeight="850" background="none" math="0" shadow="0">
      <root>
        <mxCell id="0" />
        <mxCell id="1" parent="0" />
        <mxCell id="_uhkkYRvlDr_PO7esT6X-121" value="" style="rounded=1;whiteSpace=wrap;html=1;fillColor=none;dashed=1;" vertex="1" parent="1">
          <mxGeometry x="-1060" y="500" width="380" height="120" as="geometry" />
        </mxCell>
        <mxCell id="_uhkkYRvlDr_PO7esT6X-334" style="edgeStyle=orthogonalEdgeStyle;rounded=0;orthogonalLoop=1;jettySize=auto;html=1;endArrow=none;endFill=0;" edge="1" parent="1" source="Ms32XR50p7yfsGB4Lvfj-89">
          <mxGeometry relative="1" as="geometry">
            <mxPoint x="-285" y="80" as="targetPoint" />
          </mxGeometry>
        </mxCell>
        <mxCell id="Ms32XR50p7yfsGB4Lvfj-89" value="" style="rounded=1;whiteSpace=wrap;html=1;fillColor=#e1d5e7;strokeColor=#9673a6;" parent="1" vertex="1">
          <mxGeometry x="-360" y="-40" width="150" height="90" as="geometry" />
        </mxCell>
        <mxCell id="Ms32XR50p7yfsGB4Lvfj-97" style="edgeStyle=orthogonalEdgeStyle;rounded=0;orthogonalLoop=1;jettySize=auto;html=1;endArrow=none;endFill=0;" parent="1" source="Ms32XR50p7yfsGB4Lvfj-93" target="Ms32XR50p7yfsGB4Lvfj-89" edge="1">
          <mxGeometry relative="1" as="geometry" />
        </mxCell>
        <mxCell id="_uhkkYRvlDr_PO7esT6X-12" style="edgeStyle=orthogonalEdgeStyle;rounded=0;orthogonalLoop=1;jettySize=auto;html=1;entryX=0.5;entryY=0;entryDx=0;entryDy=0;endArrow=none;endFill=0;" edge="1" parent="1" source="Ms32XR50p7yfsGB4Lvfj-93" target="_uhkkYRvlDr_PO7esT6X-4">
          <mxGeometry relative="1" as="geometry" />
        </mxCell>
        <mxCell id="_uhkkYRvlDr_PO7esT6X-13" style="edgeStyle=orthogonalEdgeStyle;rounded=0;orthogonalLoop=1;jettySize=auto;html=1;endArrow=none;endFill=0;" edge="1" parent="1" source="Ms32XR50p7yfsGB4Lvfj-93" target="_uhkkYRvlDr_PO7esT6X-6">
          <mxGeometry relative="1" as="geometry" />
        </mxCell>
        <mxCell id="Ms32XR50p7yfsGB4Lvfj-93" value="" style="rounded=1;whiteSpace=wrap;html=1;fillColor=#f5f5f5;strokeColor=#666666;fontColor=#333333;" parent="1" vertex="1">
          <mxGeometry x="390" y="-170" width="150" height="90" as="geometry" />
        </mxCell>
        <mxCell id="Ms32XR50p7yfsGB4Lvfj-94" value="Root Folder" style="text;html=1;strokeColor=none;fillColor=none;align=center;verticalAlign=middle;whiteSpace=wrap;rounded=0;fontSize=20;" parent="1" vertex="1">
          <mxGeometry x="400" y="-140" width="130" height="30" as="geometry" />
        </mxCell>
        <mxCell id="_uhkkYRvlDr_PO7esT6X-4" value="" style="rounded=1;whiteSpace=wrap;html=1;fillColor=#bac8d3;strokeColor=#23445d;" vertex="1" parent="1">
          <mxGeometry x="390" y="-40" width="150" height="90" as="geometry" />
        </mxCell>
        <mxCell id="_uhkkYRvlDr_PO7esT6X-6" value="" style="rounded=1;whiteSpace=wrap;html=1;fillColor=#e1d5e7;strokeColor=#9673a6;" vertex="1" parent="1">
          <mxGeometry x="1030" y="-40" width="150" height="90" as="geometry" />
        </mxCell>
        <mxCell id="Ms32XR50p7yfsGB4Lvfj-88" value="Frontend" style="text;html=1;strokeColor=none;fillColor=none;align=center;verticalAlign=middle;whiteSpace=wrap;rounded=0;fontSize=22;" parent="1" vertex="1">
          <mxGeometry x="-350" y="-10" width="130" height="30" as="geometry" />
        </mxCell>
        <mxCell id="_uhkkYRvlDr_PO7esT6X-8" value="Backend" style="text;html=1;strokeColor=none;fillColor=none;align=center;verticalAlign=middle;whiteSpace=wrap;rounded=0;fontSize=22;" vertex="1" parent="1">
          <mxGeometry x="1040" y="-10" width="130" height="30" as="geometry" />
        </mxCell>
        <mxCell id="_uhkkYRvlDr_PO7esT6X-9" value="docker-comopse.yaml" style="text;html=1;strokeColor=none;fillColor=none;align=center;verticalAlign=middle;whiteSpace=wrap;rounded=0;fontSize=13;" vertex="1" parent="1">
          <mxGeometry x="340" y="-10" width="250" height="30" as="geometry" />
        </mxCell>
        <mxCell id="_uhkkYRvlDr_PO7esT6X-93" style="edgeStyle=orthogonalEdgeStyle;rounded=0;orthogonalLoop=1;jettySize=auto;html=1;endArrow=none;endFill=0;" edge="1" parent="1" source="_uhkkYRvlDr_PO7esT6X-14">
          <mxGeometry relative="1" as="geometry">
            <mxPoint x="-605" y="80" as="targetPoint" />
          </mxGeometry>
        </mxCell>
        <mxCell id="_uhkkYRvlDr_PO7esT6X-102" style="edgeStyle=orthogonalEdgeStyle;rounded=0;orthogonalLoop=1;jettySize=auto;html=1;endArrow=none;endFill=0;" edge="1" parent="1" source="_uhkkYRvlDr_PO7esT6X-14">
          <mxGeometry relative="1" as="geometry">
            <mxPoint x="-640" y="240" as="targetPoint" />
          </mxGeometry>
        </mxCell>
        <mxCell id="_uhkkYRvlDr_PO7esT6X-14" value="" style="rounded=1;whiteSpace=wrap;html=1;fillColor=#e1d5e7;strokeColor=#9673a6;" vertex="1" parent="1">
          <mxGeometry x="-680" y="130" width="150" height="90" as="geometry" />
        </mxCell>
        <mxCell id="_uhkkYRvlDr_PO7esT6X-16" value="src" style="text;html=1;strokeColor=none;fillColor=none;align=center;verticalAlign=middle;whiteSpace=wrap;rounded=0;fontSize=22;" vertex="1" parent="1">
          <mxGeometry x="-670" y="160" width="130" height="30" as="geometry" />
        </mxCell>
        <mxCell id="_uhkkYRvlDr_PO7esT6X-95" style="edgeStyle=orthogonalEdgeStyle;rounded=0;orthogonalLoop=1;jettySize=auto;html=1;endArrow=none;endFill=0;" edge="1" parent="1" source="_uhkkYRvlDr_PO7esT6X-17">
          <mxGeometry relative="1" as="geometry">
            <mxPoint x="-225" y="80" as="targetPoint" />
          </mxGeometry>
        </mxCell>
        <mxCell id="_uhkkYRvlDr_PO7esT6X-17" value="" style="rounded=1;whiteSpace=wrap;html=1;fillColor=#e1d5e7;strokeColor=#9673a6;" vertex="1" parent="1">
          <mxGeometry x="-300" y="130" width="150" height="90" as="geometry" />
        </mxCell>
        <mxCell id="_uhkkYRvlDr_PO7esT6X-15" value="public" style="text;html=1;strokeColor=none;fillColor=none;align=center;verticalAlign=middle;whiteSpace=wrap;rounded=0;fontSize=22;" vertex="1" parent="1">
          <mxGeometry x="-290" y="160" width="130" height="30" as="geometry" />
        </mxCell>
        <mxCell id="_uhkkYRvlDr_PO7esT6X-97" style="edgeStyle=orthogonalEdgeStyle;rounded=0;orthogonalLoop=1;jettySize=auto;html=1;endArrow=none;endFill=0;" edge="1" parent="1" source="_uhkkYRvlDr_PO7esT6X-18">
          <mxGeometry relative="1" as="geometry">
            <mxPoint x="175" y="80" as="targetPoint" />
          </mxGeometry>
        </mxCell>
        <mxCell id="_uhkkYRvlDr_PO7esT6X-100" style="edgeStyle=orthogonalEdgeStyle;rounded=0;orthogonalLoop=1;jettySize=auto;html=1;entryX=0.5;entryY=0;entryDx=0;entryDy=0;endArrow=none;endFill=0;" edge="1" parent="1" source="_uhkkYRvlDr_PO7esT6X-18" target="_uhkkYRvlDr_PO7esT6X-33">
          <mxGeometry relative="1" as="geometry" />
        </mxCell>
        <mxCell id="_uhkkYRvlDr_PO7esT6X-18" value="" style="rounded=1;whiteSpace=wrap;html=1;fillColor=#e1d5e7;strokeColor=#9673a6;" vertex="1" parent="1">
          <mxGeometry x="100" y="130" width="150" height="90" as="geometry" />
        </mxCell>
        <mxCell id="_uhkkYRvlDr_PO7esT6X-19" value="deployment" style="text;html=1;strokeColor=none;fillColor=none;align=center;verticalAlign=middle;whiteSpace=wrap;rounded=0;fontSize=22;" vertex="1" parent="1">
          <mxGeometry x="110" y="160" width="130" height="30" as="geometry" />
        </mxCell>
        <mxCell id="_uhkkYRvlDr_PO7esT6X-91" style="edgeStyle=orthogonalEdgeStyle;rounded=0;orthogonalLoop=1;jettySize=auto;html=1;endArrow=none;endFill=0;" edge="1" parent="1" source="_uhkkYRvlDr_PO7esT6X-21">
          <mxGeometry relative="1" as="geometry">
            <mxPoint x="-795" y="80" as="targetPoint" />
          </mxGeometry>
        </mxCell>
        <mxCell id="_uhkkYRvlDr_PO7esT6X-21" value="" style="rounded=1;whiteSpace=wrap;html=1;fillColor=#bac8d3;strokeColor=#23445d;" vertex="1" parent="1">
          <mxGeometry x="-870" y="130" width="150" height="90" as="geometry" />
        </mxCell>
        <mxCell id="_uhkkYRvlDr_PO7esT6X-22" value="Dockerfile" style="text;html=1;strokeColor=none;fillColor=none;align=center;verticalAlign=middle;whiteSpace=wrap;rounded=0;fontSize=22;" vertex="1" parent="1">
          <mxGeometry x="-860" y="160" width="130" height="30" as="geometry" />
        </mxCell>
        <mxCell id="_uhkkYRvlDr_PO7esT6X-98" style="edgeStyle=orthogonalEdgeStyle;rounded=0;orthogonalLoop=1;jettySize=auto;html=1;endArrow=none;endFill=0;" edge="1" parent="1" source="_uhkkYRvlDr_PO7esT6X-23">
          <mxGeometry relative="1" as="geometry">
            <mxPoint x="365" y="80" as="targetPoint" />
          </mxGeometry>
        </mxCell>
        <mxCell id="_uhkkYRvlDr_PO7esT6X-23" value="" style="rounded=1;whiteSpace=wrap;html=1;fillColor=#bac8d3;strokeColor=#23445d;" vertex="1" parent="1">
          <mxGeometry x="290" y="130" width="150" height="90" as="geometry" />
        </mxCell>
        <mxCell id="_uhkkYRvlDr_PO7esT6X-24" value="package.json" style="text;html=1;strokeColor=none;fillColor=none;align=center;verticalAlign=middle;whiteSpace=wrap;rounded=0;fontSize=22;" vertex="1" parent="1">
          <mxGeometry x="300" y="160" width="130" height="30" as="geometry" />
        </mxCell>
        <mxCell id="_uhkkYRvlDr_PO7esT6X-96" style="edgeStyle=orthogonalEdgeStyle;rounded=0;orthogonalLoop=1;jettySize=auto;html=1;endArrow=none;endFill=0;" edge="1" parent="1" source="_uhkkYRvlDr_PO7esT6X-25">
          <mxGeometry relative="1" as="geometry">
            <mxPoint x="-15" y="80" as="targetPoint" />
          </mxGeometry>
        </mxCell>
        <mxCell id="_uhkkYRvlDr_PO7esT6X-25" value="" style="rounded=1;whiteSpace=wrap;html=1;fillColor=#bac8d3;strokeColor=#23445d;" vertex="1" parent="1">
          <mxGeometry x="-90" y="130" width="150" height="90" as="geometry" />
        </mxCell>
        <mxCell id="_uhkkYRvlDr_PO7esT6X-26" value="yarn.lock" style="text;html=1;strokeColor=none;fillColor=none;align=center;verticalAlign=middle;whiteSpace=wrap;rounded=0;fontSize=22;" vertex="1" parent="1">
          <mxGeometry x="-80" y="160" width="130" height="30" as="geometry" />
        </mxCell>
        <mxCell id="_uhkkYRvlDr_PO7esT6X-89" style="edgeStyle=orthogonalEdgeStyle;rounded=0;orthogonalLoop=1;jettySize=auto;html=1;endArrow=none;endFill=0;" edge="1" parent="1" source="_uhkkYRvlDr_PO7esT6X-27">
          <mxGeometry relative="1" as="geometry">
            <mxPoint x="-1175" y="80" as="targetPoint" />
            <Array as="points">
              <mxPoint x="-1175" y="100" />
              <mxPoint x="-1174" y="70" />
            </Array>
          </mxGeometry>
        </mxCell>
        <mxCell id="_uhkkYRvlDr_PO7esT6X-27" value="" style="rounded=1;whiteSpace=wrap;html=1;fillColor=#fad7ac;strokeColor=#b46504;" vertex="1" parent="1">
          <mxGeometry x="-1250" y="130" width="150" height="90" as="geometry" />
        </mxCell>
        <mxCell id="_uhkkYRvlDr_PO7esT6X-28" value="index.html" style="text;html=1;strokeColor=none;fillColor=none;align=center;verticalAlign=middle;whiteSpace=wrap;rounded=0;fontSize=22;" vertex="1" parent="1">
          <mxGeometry x="-1240" y="160" width="130" height="30" as="geometry" />
        </mxCell>
        <mxCell id="_uhkkYRvlDr_PO7esT6X-90" style="edgeStyle=orthogonalEdgeStyle;rounded=0;orthogonalLoop=1;jettySize=auto;html=1;endArrow=none;endFill=0;" edge="1" parent="1" source="_uhkkYRvlDr_PO7esT6X-29">
          <mxGeometry relative="1" as="geometry">
            <mxPoint x="-985" y="80" as="targetPoint" />
          </mxGeometry>
        </mxCell>
        <mxCell id="_uhkkYRvlDr_PO7esT6X-29" value="" style="rounded=1;whiteSpace=wrap;html=1;fillColor=#bac8d3;strokeColor=#23445d;" vertex="1" parent="1">
          <mxGeometry x="-1060" y="130" width="150" height="90" as="geometry" />
        </mxCell>
        <mxCell id="_uhkkYRvlDr_PO7esT6X-30" value="tsconfig.json" style="text;html=1;strokeColor=none;fillColor=none;align=center;verticalAlign=middle;whiteSpace=wrap;rounded=0;fontSize=22;" vertex="1" parent="1">
          <mxGeometry x="-1050" y="160" width="130" height="30" as="geometry" />
        </mxCell>
        <mxCell id="_uhkkYRvlDr_PO7esT6X-136" style="edgeStyle=orthogonalEdgeStyle;rounded=0;orthogonalLoop=1;jettySize=auto;html=1;endArrow=none;endFill=0;" edge="1" parent="1" source="_uhkkYRvlDr_PO7esT6X-31">
          <mxGeometry relative="1" as="geometry">
            <mxPoint x="-415" y="80" as="targetPoint" />
          </mxGeometry>
        </mxCell>
        <mxCell id="_uhkkYRvlDr_PO7esT6X-31" value="" style="rounded=1;whiteSpace=wrap;html=1;fillColor=#bac8d3;strokeColor=#23445d;" vertex="1" parent="1">
          <mxGeometry x="-490" y="130" width="150" height="90" as="geometry" />
        </mxCell>
        <mxCell id="_uhkkYRvlDr_PO7esT6X-32" value="vite.config.ts" style="text;html=1;strokeColor=none;fillColor=none;align=center;verticalAlign=middle;whiteSpace=wrap;rounded=0;fontSize=22;" vertex="1" parent="1">
          <mxGeometry x="-480" y="160" width="130" height="30" as="geometry" />
        </mxCell>
        <mxCell id="_uhkkYRvlDr_PO7esT6X-33" value="" style="rounded=1;whiteSpace=wrap;html=1;fillColor=#bac8d3;strokeColor=#23445d;" vertex="1" parent="1">
          <mxGeometry x="100" y="260" width="150" height="90" as="geometry" />
        </mxCell>
        <mxCell id="_uhkkYRvlDr_PO7esT6X-34" value="nginx.default.conf" style="text;html=1;strokeColor=none;fillColor=none;align=center;verticalAlign=middle;whiteSpace=wrap;rounded=0;fontSize=17;" vertex="1" parent="1">
          <mxGeometry x="110" y="290" width="130" height="30" as="geometry" />
        </mxCell>
        <mxCell id="_uhkkYRvlDr_PO7esT6X-105" style="edgeStyle=orthogonalEdgeStyle;rounded=0;orthogonalLoop=1;jettySize=auto;html=1;endArrow=none;endFill=0;" edge="1" parent="1" source="_uhkkYRvlDr_PO7esT6X-35">
          <mxGeometry relative="1" as="geometry">
            <mxPoint x="-285" y="240" as="targetPoint" />
          </mxGeometry>
        </mxCell>
        <mxCell id="_uhkkYRvlDr_PO7esT6X-35" value="" style="rounded=1;whiteSpace=wrap;html=1;fillColor=#bac8d3;strokeColor=#23445d;" vertex="1" parent="1">
          <mxGeometry x="-360" y="260" width="150" height="90" as="geometry" />
        </mxCell>
        <mxCell id="_uhkkYRvlDr_PO7esT6X-36" value="vite-env.d.ts" style="text;html=1;strokeColor=none;fillColor=none;align=center;verticalAlign=middle;whiteSpace=wrap;rounded=0;fontSize=22;" vertex="1" parent="1">
          <mxGeometry x="-350" y="290" width="130" height="30" as="geometry" />
        </mxCell>
        <mxCell id="_uhkkYRvlDr_PO7esT6X-109" style="edgeStyle=orthogonalEdgeStyle;rounded=0;orthogonalLoop=1;jettySize=auto;html=1;endArrow=none;endFill=0;" edge="1" parent="1" source="_uhkkYRvlDr_PO7esT6X-37">
          <mxGeometry relative="1" as="geometry">
            <mxPoint x="-845" y="240" as="targetPoint" />
          </mxGeometry>
        </mxCell>
        <mxCell id="_uhkkYRvlDr_PO7esT6X-37" value="" style="rounded=1;whiteSpace=wrap;html=1;fillColor=#dae8fc;strokeColor=#6c8ebf;" vertex="1" parent="1">
          <mxGeometry x="-920" y="260" width="150" height="90" as="geometry" />
        </mxCell>
        <mxCell id="_uhkkYRvlDr_PO7esT6X-38" value="main.tsx" style="text;html=1;strokeColor=none;fillColor=none;align=center;verticalAlign=middle;whiteSpace=wrap;rounded=0;fontSize=22;" vertex="1" parent="1">
          <mxGeometry x="-910" y="290" width="130" height="30" as="geometry" />
        </mxCell>
        <mxCell id="_uhkkYRvlDr_PO7esT6X-111" style="edgeStyle=orthogonalEdgeStyle;rounded=0;orthogonalLoop=1;jettySize=auto;html=1;endArrow=none;endFill=0;" edge="1" parent="1" source="_uhkkYRvlDr_PO7esT6X-39">
          <mxGeometry relative="1" as="geometry">
            <mxPoint x="-1215" y="240" as="targetPoint" />
          </mxGeometry>
        </mxCell>
        <mxCell id="_uhkkYRvlDr_PO7esT6X-39" value="" style="rounded=1;whiteSpace=wrap;html=1;fillColor=#f8cecc;strokeColor=#b85450;" vertex="1" parent="1">
          <mxGeometry x="-1290" y="260" width="150" height="90" as="geometry" />
        </mxCell>
        <mxCell id="_uhkkYRvlDr_PO7esT6X-40" value="index.css" style="text;html=1;strokeColor=none;fillColor=none;align=center;verticalAlign=middle;whiteSpace=wrap;rounded=0;fontSize=22;" vertex="1" parent="1">
          <mxGeometry x="-1280" y="290" width="130" height="30" as="geometry" />
        </mxCell>
        <mxCell id="_uhkkYRvlDr_PO7esT6X-116" style="edgeStyle=orthogonalEdgeStyle;rounded=0;orthogonalLoop=1;jettySize=auto;html=1;endArrow=none;endFill=0;" edge="1" parent="1" source="_uhkkYRvlDr_PO7esT6X-41">
          <mxGeometry relative="1" as="geometry">
            <mxPoint x="-1965" y="240" as="targetPoint" />
          </mxGeometry>
        </mxCell>
        <mxCell id="_uhkkYRvlDr_PO7esT6X-41" value="" style="rounded=1;whiteSpace=wrap;html=1;fillColor=#dae8fc;strokeColor=#6c8ebf;" vertex="1" parent="1">
          <mxGeometry x="-2040" y="260" width="150" height="90" as="geometry" />
        </mxCell>
        <mxCell id="_uhkkYRvlDr_PO7esT6X-42" value="App.tsx" style="text;html=1;strokeColor=none;fillColor=none;align=center;verticalAlign=middle;whiteSpace=wrap;rounded=0;fontSize=22;" vertex="1" parent="1">
          <mxGeometry x="-2030" y="290" width="130" height="30" as="geometry" />
        </mxCell>
        <mxCell id="_uhkkYRvlDr_PO7esT6X-106" style="edgeStyle=orthogonalEdgeStyle;rounded=0;orthogonalLoop=1;jettySize=auto;html=1;endArrow=none;endFill=0;" edge="1" parent="1" source="_uhkkYRvlDr_PO7esT6X-43">
          <mxGeometry relative="1" as="geometry">
            <mxPoint x="-475" y="240" as="targetPoint" />
          </mxGeometry>
        </mxCell>
        <mxCell id="_uhkkYRvlDr_PO7esT6X-43" value="" style="rounded=1;whiteSpace=wrap;html=1;fillColor=#f8cecc;strokeColor=#b85450;" vertex="1" parent="1">
          <mxGeometry x="-550" y="260" width="150" height="90" as="geometry" />
        </mxCell>
        <mxCell id="_uhkkYRvlDr_PO7esT6X-44" value="App.css" style="text;html=1;strokeColor=none;fillColor=none;align=center;verticalAlign=middle;whiteSpace=wrap;rounded=0;fontSize=22;" vertex="1" parent="1">
          <mxGeometry x="-540" y="290" width="130" height="30" as="geometry" />
        </mxCell>
        <mxCell id="_uhkkYRvlDr_PO7esT6X-113" style="edgeStyle=orthogonalEdgeStyle;rounded=0;orthogonalLoop=1;jettySize=auto;html=1;endArrow=none;endFill=0;" edge="1" parent="1" source="_uhkkYRvlDr_PO7esT6X-47">
          <mxGeometry relative="1" as="geometry">
            <mxPoint x="-1595" y="240" as="targetPoint" />
          </mxGeometry>
        </mxCell>
        <mxCell id="_uhkkYRvlDr_PO7esT6X-47" value="" style="rounded=1;whiteSpace=wrap;html=1;fillColor=#dae8fc;strokeColor=#6c8ebf;" vertex="1" parent="1">
          <mxGeometry x="-1670" y="260" width="150" height="90" as="geometry" />
        </mxCell>
        <mxCell id="_uhkkYRvlDr_PO7esT6X-48" value="LoggedInContext.tsx" style="text;html=1;strokeColor=none;fillColor=none;align=center;verticalAlign=middle;whiteSpace=wrap;rounded=0;fontSize=15;" vertex="1" parent="1">
          <mxGeometry x="-1660" y="290" width="130" height="30" as="geometry" />
        </mxCell>
        <mxCell id="_uhkkYRvlDr_PO7esT6X-114" style="edgeStyle=orthogonalEdgeStyle;rounded=0;orthogonalLoop=1;jettySize=auto;html=1;endArrow=none;endFill=0;" edge="1" parent="1" source="_uhkkYRvlDr_PO7esT6X-50">
          <mxGeometry relative="1" as="geometry">
            <mxPoint x="-1785" y="240" as="targetPoint" />
          </mxGeometry>
        </mxCell>
        <mxCell id="_uhkkYRvlDr_PO7esT6X-50" value="" style="rounded=1;whiteSpace=wrap;html=1;fillColor=#dae8fc;strokeColor=#6c8ebf;" vertex="1" parent="1">
          <mxGeometry x="-1860" y="260" width="150" height="90" as="geometry" />
        </mxCell>
        <mxCell id="_uhkkYRvlDr_PO7esT6X-51" value="&lt;div style=&quot;font-size: 16px;&quot;&gt;LoggedInContext&lt;/div&gt;&lt;div style=&quot;font-size: 16px;&quot;&gt;Provider.tsx&lt;/div&gt;" style="text;html=1;strokeColor=none;fillColor=none;align=center;verticalAlign=middle;whiteSpace=wrap;rounded=0;fontSize=16;" vertex="1" parent="1">
          <mxGeometry x="-1850" y="290" width="130" height="30" as="geometry" />
        </mxCell>
        <mxCell id="_uhkkYRvlDr_PO7esT6X-107" style="edgeStyle=orthogonalEdgeStyle;rounded=0;orthogonalLoop=1;jettySize=auto;html=1;endArrow=none;endFill=0;" edge="1" parent="1" source="_uhkkYRvlDr_PO7esT6X-52">
          <mxGeometry relative="1" as="geometry">
            <mxPoint x="-655" y="240" as="targetPoint" />
          </mxGeometry>
        </mxCell>
        <mxCell id="_uhkkYRvlDr_PO7esT6X-118" style="edgeStyle=orthogonalEdgeStyle;rounded=0;orthogonalLoop=1;jettySize=auto;html=1;entryX=0.5;entryY=0;entryDx=0;entryDy=0;endArrow=none;endFill=0;" edge="1" parent="1" source="_uhkkYRvlDr_PO7esT6X-52" target="_uhkkYRvlDr_PO7esT6X-60">
          <mxGeometry relative="1" as="geometry" />
        </mxCell>
        <mxCell id="_uhkkYRvlDr_PO7esT6X-52" value="" style="rounded=1;whiteSpace=wrap;html=1;fillColor=#e1d5e7;strokeColor=#9673a6;" vertex="1" parent="1">
          <mxGeometry x="-730" y="260" width="150" height="90" as="geometry" />
        </mxCell>
        <mxCell id="_uhkkYRvlDr_PO7esT6X-53" value="assets" style="text;html=1;strokeColor=none;fillColor=none;align=center;verticalAlign=middle;whiteSpace=wrap;rounded=0;fontSize=22;" vertex="1" parent="1">
          <mxGeometry x="-720" y="290" width="130" height="30" as="geometry" />
        </mxCell>
        <mxCell id="_uhkkYRvlDr_PO7esT6X-110" style="edgeStyle=orthogonalEdgeStyle;rounded=0;orthogonalLoop=1;jettySize=auto;html=1;endArrow=none;endFill=0;" edge="1" parent="1" source="_uhkkYRvlDr_PO7esT6X-54">
          <mxGeometry relative="1" as="geometry">
            <mxPoint x="-1025" y="240" as="targetPoint" />
          </mxGeometry>
        </mxCell>
        <mxCell id="_uhkkYRvlDr_PO7esT6X-119" style="edgeStyle=orthogonalEdgeStyle;rounded=0;orthogonalLoop=1;jettySize=auto;html=1;entryX=0.5;entryY=0;entryDx=0;entryDy=0;endArrow=none;endFill=0;" edge="1" parent="1" source="_uhkkYRvlDr_PO7esT6X-54" target="_uhkkYRvlDr_PO7esT6X-63">
          <mxGeometry relative="1" as="geometry">
            <Array as="points">
              <mxPoint x="-1025" y="370" />
              <mxPoint x="-1265" y="370" />
            </Array>
          </mxGeometry>
        </mxCell>
        <mxCell id="_uhkkYRvlDr_PO7esT6X-120" style="edgeStyle=orthogonalEdgeStyle;rounded=0;orthogonalLoop=1;jettySize=auto;html=1;endArrow=none;endFill=0;" edge="1" parent="1" source="_uhkkYRvlDr_PO7esT6X-54" target="_uhkkYRvlDr_PO7esT6X-65">
          <mxGeometry relative="1" as="geometry" />
        </mxCell>
        <mxCell id="_uhkkYRvlDr_PO7esT6X-54" value="" style="rounded=1;whiteSpace=wrap;html=1;fillColor=#e1d5e7;strokeColor=#9673a6;" vertex="1" parent="1">
          <mxGeometry x="-1100" y="260" width="150" height="90" as="geometry" />
        </mxCell>
        <mxCell id="_uhkkYRvlDr_PO7esT6X-55" value="componets" style="text;html=1;strokeColor=none;fillColor=none;align=center;verticalAlign=middle;whiteSpace=wrap;rounded=0;fontSize=22;" vertex="1" parent="1">
          <mxGeometry x="-1090" y="290" width="130" height="30" as="geometry" />
        </mxCell>
        <mxCell id="_uhkkYRvlDr_PO7esT6X-112" style="edgeStyle=orthogonalEdgeStyle;rounded=0;orthogonalLoop=1;jettySize=auto;html=1;endArrow=none;endFill=0;" edge="1" parent="1" source="_uhkkYRvlDr_PO7esT6X-56">
          <mxGeometry relative="1" as="geometry">
            <mxPoint x="-1405" y="240" as="targetPoint" />
          </mxGeometry>
        </mxCell>
        <mxCell id="_uhkkYRvlDr_PO7esT6X-133" style="edgeStyle=orthogonalEdgeStyle;rounded=0;orthogonalLoop=1;jettySize=auto;html=1;entryX=0.5;entryY=0;entryDx=0;entryDy=0;endArrow=none;endFill=0;" edge="1" parent="1" source="_uhkkYRvlDr_PO7esT6X-56" target="_uhkkYRvlDr_PO7esT6X-127">
          <mxGeometry relative="1" as="geometry" />
        </mxCell>
        <mxCell id="_uhkkYRvlDr_PO7esT6X-56" value="" style="rounded=1;whiteSpace=wrap;html=1;fillColor=#e1d5e7;strokeColor=#9673a6;" vertex="1" parent="1">
          <mxGeometry x="-1480" y="260" width="150" height="90" as="geometry" />
        </mxCell>
        <mxCell id="_uhkkYRvlDr_PO7esT6X-57" value="engine" style="text;html=1;strokeColor=none;fillColor=none;align=center;verticalAlign=middle;whiteSpace=wrap;rounded=0;fontSize=22;" vertex="1" parent="1">
          <mxGeometry x="-1470" y="290" width="130" height="30" as="geometry" />
        </mxCell>
        <mxCell id="_uhkkYRvlDr_PO7esT6X-104" style="edgeStyle=orthogonalEdgeStyle;rounded=0;orthogonalLoop=1;jettySize=auto;html=1;endArrow=none;endFill=0;" edge="1" parent="1" source="_uhkkYRvlDr_PO7esT6X-58">
          <mxGeometry relative="1" as="geometry">
            <mxPoint x="-100" y="240" as="targetPoint" />
          </mxGeometry>
        </mxCell>
        <mxCell id="_uhkkYRvlDr_PO7esT6X-131" style="edgeStyle=orthogonalEdgeStyle;rounded=0;orthogonalLoop=1;jettySize=auto;html=1;entryX=0.5;entryY=0;entryDx=0;entryDy=0;endArrow=none;endFill=0;" edge="1" parent="1" source="_uhkkYRvlDr_PO7esT6X-58" target="_uhkkYRvlDr_PO7esT6X-129">
          <mxGeometry relative="1" as="geometry" />
        </mxCell>
        <mxCell id="_uhkkYRvlDr_PO7esT6X-58" value="" style="rounded=1;whiteSpace=wrap;html=1;fillColor=#e1d5e7;strokeColor=#9673a6;" vertex="1" parent="1">
          <mxGeometry x="-180" y="260" width="150" height="90" as="geometry" />
        </mxCell>
        <mxCell id="_uhkkYRvlDr_PO7esT6X-60" value="" style="rounded=1;whiteSpace=wrap;html=1;" vertex="1" parent="1">
          <mxGeometry x="-730" y="390" width="150" height="90" as="geometry" />
        </mxCell>
        <mxCell id="_uhkkYRvlDr_PO7esT6X-61" value="routes" style="text;html=1;strokeColor=none;fillColor=none;align=center;verticalAlign=middle;whiteSpace=wrap;rounded=0;fontSize=22;" vertex="1" parent="1">
          <mxGeometry x="-170" y="290" width="130" height="30" as="geometry" />
        </mxCell>
        <mxCell id="_uhkkYRvlDr_PO7esT6X-62" value="VarelaRound-Regular.ttf" style="text;html=1;strokeColor=none;fillColor=none;align=center;verticalAlign=middle;whiteSpace=wrap;rounded=0;fontSize=19;" vertex="1" parent="1">
          <mxGeometry x="-720" y="420" width="130" height="30" as="geometry" />
        </mxCell>
        <mxCell id="_uhkkYRvlDr_PO7esT6X-63" value="" style="rounded=1;whiteSpace=wrap;html=1;fillColor=#e1d5e7;strokeColor=#9673a6;" vertex="1" parent="1">
          <mxGeometry x="-1340" y="390" width="150" height="90" as="geometry" />
        </mxCell>
        <mxCell id="_uhkkYRvlDr_PO7esT6X-64" value="BoardElement" style="text;html=1;strokeColor=none;fillColor=none;align=center;verticalAlign=middle;whiteSpace=wrap;rounded=0;fontSize=22;" vertex="1" parent="1">
          <mxGeometry x="-1330" y="420" width="130" height="30" as="geometry" />
        </mxCell>
        <mxCell id="_uhkkYRvlDr_PO7esT6X-65" value="" style="rounded=1;whiteSpace=wrap;html=1;fillColor=#e1d5e7;strokeColor=#9673a6;" vertex="1" parent="1">
          <mxGeometry x="-950" y="390" width="150" height="90" as="geometry" />
        </mxCell>
        <mxCell id="_uhkkYRvlDr_PO7esT6X-66" value="TextInput" style="text;html=1;strokeColor=none;fillColor=none;align=center;verticalAlign=middle;whiteSpace=wrap;rounded=0;fontSize=22;" vertex="1" parent="1">
          <mxGeometry x="-940" y="420" width="130" height="30" as="geometry" />
        </mxCell>
        <mxCell id="_uhkkYRvlDr_PO7esT6X-69" value="" style="rounded=1;whiteSpace=wrap;html=1;fillColor=#f8cecc;strokeColor=#b85450;" vertex="1" parent="1">
          <mxGeometry x="-860" y="510" width="150" height="90" as="geometry" />
        </mxCell>
        <mxCell id="_uhkkYRvlDr_PO7esT6X-70" value="index.css" style="text;html=1;strokeColor=none;fillColor=none;align=center;verticalAlign=middle;whiteSpace=wrap;rounded=0;fontSize=22;" vertex="1" parent="1">
          <mxGeometry x="-850" y="540" width="130" height="30" as="geometry" />
        </mxCell>
        <mxCell id="_uhkkYRvlDr_PO7esT6X-71" value="" style="rounded=1;whiteSpace=wrap;html=1;fillColor=#dae8fc;strokeColor=#6c8ebf;" vertex="1" parent="1">
          <mxGeometry x="-1040" y="510" width="150" height="90" as="geometry" />
        </mxCell>
        <mxCell id="_uhkkYRvlDr_PO7esT6X-72" value="index.tsx" style="text;html=1;strokeColor=none;fillColor=none;align=center;verticalAlign=middle;whiteSpace=wrap;rounded=0;fontSize=22;" vertex="1" parent="1">
          <mxGeometry x="-1030" y="540" width="130" height="30" as="geometry" />
        </mxCell>
        <mxCell id="_uhkkYRvlDr_PO7esT6X-76" value="" style="rounded=1;whiteSpace=wrap;html=1;fillColor=#dae8fc;strokeColor=#6c8ebf;" vertex="1" parent="1">
          <mxGeometry x="-1250" y="510" width="150" height="90" as="geometry" />
        </mxCell>
        <mxCell id="_uhkkYRvlDr_PO7esT6X-77" value="&lt;div&gt;Piece.tsx&lt;/div&gt;" style="text;html=1;strokeColor=none;fillColor=none;align=center;verticalAlign=middle;whiteSpace=wrap;rounded=0;fontSize=22;" vertex="1" parent="1">
          <mxGeometry x="-1240" y="540" width="130" height="30" as="geometry" />
        </mxCell>
        <mxCell id="_uhkkYRvlDr_PO7esT6X-78" value="" style="rounded=1;whiteSpace=wrap;html=1;fillColor=#dae8fc;strokeColor=#6c8ebf;" vertex="1" parent="1">
          <mxGeometry x="-1440" y="630" width="150" height="90" as="geometry" />
        </mxCell>
        <mxCell id="_uhkkYRvlDr_PO7esT6X-79" value="constants.tsx" style="text;html=1;strokeColor=none;fillColor=none;align=center;verticalAlign=middle;whiteSpace=wrap;rounded=0;fontSize=22;" vertex="1" parent="1">
          <mxGeometry x="-1430" y="660" width="130" height="30" as="geometry" />
        </mxCell>
        <mxCell id="_uhkkYRvlDr_PO7esT6X-80" value="" style="rounded=1;whiteSpace=wrap;html=1;fillColor=#dae8fc;strokeColor=#6c8ebf;" vertex="1" parent="1">
          <mxGeometry x="-1240" y="750" width="150" height="90" as="geometry" />
        </mxCell>
        <mxCell id="_uhkkYRvlDr_PO7esT6X-81" value="index.tsx" style="text;html=1;strokeColor=none;fillColor=none;align=center;verticalAlign=middle;whiteSpace=wrap;rounded=0;fontSize=22;" vertex="1" parent="1">
          <mxGeometry x="-1230" y="780" width="130" height="30" as="geometry" />
        </mxCell>
        <mxCell id="_uhkkYRvlDr_PO7esT6X-82" value="" style="rounded=1;whiteSpace=wrap;html=1;fillColor=#f8cecc;strokeColor=#b85450;" vertex="1" parent="1">
          <mxGeometry x="-1440" y="510" width="150" height="90" as="geometry" />
        </mxCell>
        <mxCell id="_uhkkYRvlDr_PO7esT6X-83" value="index.css" style="text;html=1;strokeColor=none;fillColor=none;align=center;verticalAlign=middle;whiteSpace=wrap;rounded=0;fontSize=22;" vertex="1" parent="1">
          <mxGeometry x="-1430" y="540" width="130" height="30" as="geometry" />
        </mxCell>
        <mxCell id="_uhkkYRvlDr_PO7esT6X-84" value="" style="rounded=1;whiteSpace=wrap;html=1;" vertex="1" parent="1">
          <mxGeometry x="-1240" y="630" width="150" height="90" as="geometry" />
        </mxCell>
        <mxCell id="_uhkkYRvlDr_PO7esT6X-85" value="pieces.svg" style="text;html=1;strokeColor=none;fillColor=none;align=center;verticalAlign=middle;whiteSpace=wrap;rounded=0;fontSize=23;" vertex="1" parent="1">
          <mxGeometry x="-1230" y="660" width="130" height="30" as="geometry" />
        </mxCell>
        <mxCell id="_uhkkYRvlDr_PO7esT6X-88" value="" style="endArrow=none;html=1;rounded=0;" edge="1" parent="1">
          <mxGeometry width="50" height="50" relative="1" as="geometry">
            <mxPoint x="-1170" y="80" as="sourcePoint" />
            <mxPoint x="370" y="80" as="targetPoint" />
          </mxGeometry>
        </mxCell>
        <mxCell id="_uhkkYRvlDr_PO7esT6X-101" value="" style="endArrow=none;html=1;rounded=0;" edge="1" parent="1">
          <mxGeometry width="50" height="50" relative="1" as="geometry">
            <mxPoint x="-1970" y="240" as="sourcePoint" />
            <mxPoint x="-100" y="240" as="targetPoint" />
          </mxGeometry>
        </mxCell>
        <mxCell id="_uhkkYRvlDr_PO7esT6X-123" value="" style="rounded=1;whiteSpace=wrap;html=1;fillColor=none;dashed=1;" vertex="1" parent="1">
          <mxGeometry x="-1470" y="492.5" width="400" height="365" as="geometry" />
        </mxCell>
        <mxCell id="_uhkkYRvlDr_PO7esT6X-127" value="" style="rounded=1;whiteSpace=wrap;html=1;" vertex="1" parent="1">
          <mxGeometry x="-1600" y="390" width="150" height="90" as="geometry" />
        </mxCell>
        <mxCell id="_uhkkYRvlDr_PO7esT6X-128" value="Continued on seperate diagram" style="text;html=1;strokeColor=none;fillColor=none;align=center;verticalAlign=middle;whiteSpace=wrap;rounded=0;fontSize=19;" vertex="1" parent="1">
          <mxGeometry x="-1590" y="420" width="130" height="30" as="geometry" />
        </mxCell>
        <mxCell id="_uhkkYRvlDr_PO7esT6X-129" value="" style="rounded=1;whiteSpace=wrap;html=1;" vertex="1" parent="1">
          <mxGeometry x="-180" y="390" width="150" height="90" as="geometry" />
        </mxCell>
        <mxCell id="_uhkkYRvlDr_PO7esT6X-130" value="Continued on seperate diagram" style="text;html=1;strokeColor=none;fillColor=none;align=center;verticalAlign=middle;whiteSpace=wrap;rounded=0;fontSize=19;" vertex="1" parent="1">
          <mxGeometry x="-170" y="420" width="130" height="30" as="geometry" />
        </mxCell>
        <mxCell id="_uhkkYRvlDr_PO7esT6X-178" style="edgeStyle=orthogonalEdgeStyle;rounded=0;orthogonalLoop=1;jettySize=auto;html=1;endArrow=none;endFill=0;" edge="1" parent="1" source="_uhkkYRvlDr_PO7esT6X-137">
          <mxGeometry relative="1" as="geometry">
            <mxPoint x="765" y="80" as="targetPoint" />
          </mxGeometry>
        </mxCell>
        <mxCell id="_uhkkYRvlDr_PO7esT6X-137" value="" style="rounded=1;whiteSpace=wrap;html=1;fillColor=#e1d5e7;strokeColor=#9673a6;" vertex="1" parent="1">
          <mxGeometry x="690" y="127.5" width="150" height="90" as="geometry" />
        </mxCell>
        <mxCell id="_uhkkYRvlDr_PO7esT6X-138" value="crypto_auth" style="text;html=1;strokeColor=none;fillColor=none;align=center;verticalAlign=middle;whiteSpace=wrap;rounded=0;fontSize=22;" vertex="1" parent="1">
          <mxGeometry x="700" y="157.5" width="130" height="30" as="geometry" />
        </mxCell>
        <mxCell id="_uhkkYRvlDr_PO7esT6X-182" style="edgeStyle=orthogonalEdgeStyle;rounded=0;orthogonalLoop=1;jettySize=auto;html=1;endArrow=none;endFill=0;" edge="1" parent="1" source="_uhkkYRvlDr_PO7esT6X-139">
          <mxGeometry relative="1" as="geometry">
            <mxPoint x="1525" y="80" as="targetPoint" />
          </mxGeometry>
        </mxCell>
        <mxCell id="_uhkkYRvlDr_PO7esT6X-139" value="" style="rounded=1;whiteSpace=wrap;html=1;fillColor=#e1d5e7;strokeColor=#9673a6;" vertex="1" parent="1">
          <mxGeometry x="1450" y="130" width="150" height="90" as="geometry" />
        </mxCell>
        <mxCell id="_uhkkYRvlDr_PO7esT6X-140" value="database" style="text;html=1;strokeColor=none;fillColor=none;align=center;verticalAlign=middle;whiteSpace=wrap;rounded=0;fontSize=22;" vertex="1" parent="1">
          <mxGeometry x="1460" y="160" width="130" height="30" as="geometry" />
        </mxCell>
        <mxCell id="_uhkkYRvlDr_PO7esT6X-179" style="edgeStyle=orthogonalEdgeStyle;rounded=0;orthogonalLoop=1;jettySize=auto;html=1;endArrow=none;endFill=0;" edge="1" parent="1" source="_uhkkYRvlDr_PO7esT6X-141">
          <mxGeometry relative="1" as="geometry">
            <mxPoint x="955" y="80" as="targetPoint" />
          </mxGeometry>
        </mxCell>
        <mxCell id="_uhkkYRvlDr_PO7esT6X-141" value="" style="rounded=1;whiteSpace=wrap;html=1;fillColor=#bac8d3;strokeColor=#23445d;" vertex="1" parent="1">
          <mxGeometry x="880" y="130" width="150" height="90" as="geometry" />
        </mxCell>
        <mxCell id="_uhkkYRvlDr_PO7esT6X-142" value="Dockerfile" style="text;html=1;strokeColor=none;fillColor=none;align=center;verticalAlign=middle;whiteSpace=wrap;rounded=0;fontSize=22;" vertex="1" parent="1">
          <mxGeometry x="890" y="160" width="130" height="30" as="geometry" />
        </mxCell>
        <mxCell id="_uhkkYRvlDr_PO7esT6X-181" style="edgeStyle=orthogonalEdgeStyle;rounded=0;orthogonalLoop=1;jettySize=auto;html=1;endArrow=none;endFill=0;" edge="1" parent="1" source="_uhkkYRvlDr_PO7esT6X-143">
          <mxGeometry relative="1" as="geometry">
            <mxPoint x="1335" y="80" as="targetPoint" />
          </mxGeometry>
        </mxCell>
        <mxCell id="_uhkkYRvlDr_PO7esT6X-143" value="" style="rounded=1;whiteSpace=wrap;html=1;fillColor=#b1ddf0;strokeColor=#10739e;" vertex="1" parent="1">
          <mxGeometry x="1260" y="130" width="150" height="90" as="geometry" />
        </mxCell>
        <mxCell id="_uhkkYRvlDr_PO7esT6X-144" value="app.py" style="text;html=1;strokeColor=none;fillColor=none;align=center;verticalAlign=middle;whiteSpace=wrap;rounded=0;fontSize=22;" vertex="1" parent="1">
          <mxGeometry x="1270" y="160" width="130" height="30" as="geometry" />
        </mxCell>
        <mxCell id="_uhkkYRvlDr_PO7esT6X-180" style="edgeStyle=orthogonalEdgeStyle;rounded=0;orthogonalLoop=1;jettySize=auto;html=1;endArrow=none;endFill=0;" edge="1" parent="1" source="_uhkkYRvlDr_PO7esT6X-145">
          <mxGeometry relative="1" as="geometry">
            <mxPoint x="1145" y="80" as="targetPoint" />
          </mxGeometry>
        </mxCell>
        <mxCell id="_uhkkYRvlDr_PO7esT6X-145" value="" style="rounded=1;whiteSpace=wrap;html=1;fillColor=#bac8d3;strokeColor=#23445d;" vertex="1" parent="1">
          <mxGeometry x="1070" y="130" width="150" height="90" as="geometry" />
        </mxCell>
        <mxCell id="_uhkkYRvlDr_PO7esT6X-146" value="config.py" style="text;html=1;strokeColor=none;fillColor=none;align=center;verticalAlign=middle;whiteSpace=wrap;rounded=0;fontSize=22;" vertex="1" parent="1">
          <mxGeometry x="1080" y="160" width="130" height="30" as="geometry" />
        </mxCell>
        <mxCell id="_uhkkYRvlDr_PO7esT6X-147" value="" style="rounded=1;whiteSpace=wrap;html=1;fillColor=#b1ddf0;strokeColor=#10739e;" vertex="1" parent="1">
          <mxGeometry x="500" y="130" width="150" height="90" as="geometry" />
        </mxCell>
        <mxCell id="_uhkkYRvlDr_PO7esT6X-175" style="edgeStyle=orthogonalEdgeStyle;rounded=0;orthogonalLoop=1;jettySize=auto;html=1;entryX=0.5;entryY=1;entryDx=0;entryDy=0;endArrow=none;endFill=0;" edge="1" parent="1" target="_uhkkYRvlDr_PO7esT6X-6">
          <mxGeometry relative="1" as="geometry">
            <mxPoint x="575" y="130" as="sourcePoint" />
            <Array as="points">
              <mxPoint x="575" y="80" />
              <mxPoint x="1105" y="80" />
            </Array>
          </mxGeometry>
        </mxCell>
        <mxCell id="_uhkkYRvlDr_PO7esT6X-148" value="constants.py" style="text;html=1;strokeColor=none;fillColor=none;align=center;verticalAlign=middle;whiteSpace=wrap;rounded=0;fontSize=22;" vertex="1" parent="1">
          <mxGeometry x="510" y="160" width="130" height="30" as="geometry" />
        </mxCell>
        <mxCell id="_uhkkYRvlDr_PO7esT6X-183" style="edgeStyle=orthogonalEdgeStyle;rounded=0;orthogonalLoop=1;jettySize=auto;html=1;endArrow=none;endFill=0;" edge="1" parent="1" source="_uhkkYRvlDr_PO7esT6X-149">
          <mxGeometry relative="1" as="geometry">
            <mxPoint x="1715" y="80" as="targetPoint" />
          </mxGeometry>
        </mxCell>
        <mxCell id="_uhkkYRvlDr_PO7esT6X-149" value="" style="rounded=1;whiteSpace=wrap;html=1;fillColor=#b1ddf0;strokeColor=#10739e;" vertex="1" parent="1">
          <mxGeometry x="1640" y="130" width="150" height="90" as="geometry" />
        </mxCell>
        <mxCell id="_uhkkYRvlDr_PO7esT6X-150" value="decorators.py" style="text;html=1;strokeColor=none;fillColor=none;align=center;verticalAlign=middle;whiteSpace=wrap;rounded=0;fontSize=22;" vertex="1" parent="1">
          <mxGeometry x="1650" y="157.5" width="130" height="30" as="geometry" />
        </mxCell>
        <mxCell id="_uhkkYRvlDr_PO7esT6X-176" style="edgeStyle=orthogonalEdgeStyle;rounded=0;orthogonalLoop=1;jettySize=auto;html=1;entryX=0.5;entryY=1;entryDx=0;entryDy=0;endArrow=none;endFill=0;" edge="1" parent="1" source="_uhkkYRvlDr_PO7esT6X-151" target="_uhkkYRvlDr_PO7esT6X-6">
          <mxGeometry relative="1" as="geometry">
            <Array as="points">
              <mxPoint x="1905" y="80" />
              <mxPoint x="1105" y="80" />
            </Array>
          </mxGeometry>
        </mxCell>
        <mxCell id="_uhkkYRvlDr_PO7esT6X-151" value="" style="rounded=1;whiteSpace=wrap;html=1;fillColor=#bac8d3;strokeColor=#23445d;" vertex="1" parent="1">
          <mxGeometry x="1830" y="130" width="150" height="90" as="geometry" />
        </mxCell>
        <mxCell id="_uhkkYRvlDr_PO7esT6X-152" value="requirements.txt" style="text;html=1;strokeColor=none;fillColor=none;align=center;verticalAlign=middle;whiteSpace=wrap;rounded=0;fontSize=19;" vertex="1" parent="1">
          <mxGeometry x="1840" y="160" width="130" height="30" as="geometry" />
        </mxCell>
        <mxCell id="_uhkkYRvlDr_PO7esT6X-186" style="edgeStyle=orthogonalEdgeStyle;rounded=0;orthogonalLoop=1;jettySize=auto;html=1;entryX=0.5;entryY=1;entryDx=0;entryDy=0;endArrow=none;endFill=0;" edge="1" parent="1" source="_uhkkYRvlDr_PO7esT6X-153" target="_uhkkYRvlDr_PO7esT6X-137">
          <mxGeometry relative="1" as="geometry" />
        </mxCell>
        <mxCell id="_uhkkYRvlDr_PO7esT6X-153" value="" style="rounded=1;whiteSpace=wrap;html=1;fillColor=#b1ddf0;strokeColor=#10739e;" vertex="1" parent="1">
          <mxGeometry x="590" y="260" width="150" height="90" as="geometry" />
        </mxCell>
        <mxCell id="_uhkkYRvlDr_PO7esT6X-154" value="__init__.py" style="text;html=1;strokeColor=none;fillColor=none;align=center;verticalAlign=middle;whiteSpace=wrap;rounded=0;fontSize=22;" vertex="1" parent="1">
          <mxGeometry x="600" y="290" width="130" height="30" as="geometry" />
        </mxCell>
        <mxCell id="_uhkkYRvlDr_PO7esT6X-188" style="edgeStyle=orthogonalEdgeStyle;rounded=0;orthogonalLoop=1;jettySize=auto;html=1;entryX=0.5;entryY=1;entryDx=0;entryDy=0;endArrow=none;endFill=0;" edge="1" parent="1" source="_uhkkYRvlDr_PO7esT6X-155" target="_uhkkYRvlDr_PO7esT6X-137">
          <mxGeometry relative="1" as="geometry" />
        </mxCell>
        <mxCell id="_uhkkYRvlDr_PO7esT6X-155" value="" style="rounded=1;whiteSpace=wrap;html=1;fillColor=#b1ddf0;strokeColor=#10739e;" vertex="1" parent="1">
          <mxGeometry x="780" y="260" width="150" height="90" as="geometry" />
        </mxCell>
        <mxCell id="_uhkkYRvlDr_PO7esT6X-156" value="elliptic_curve.py" style="text;html=1;strokeColor=none;fillColor=none;align=center;verticalAlign=middle;whiteSpace=wrap;rounded=0;fontSize=20;" vertex="1" parent="1">
          <mxGeometry x="790" y="290" width="130" height="30" as="geometry" />
        </mxCell>
        <mxCell id="_uhkkYRvlDr_PO7esT6X-191" style="edgeStyle=orthogonalEdgeStyle;rounded=0;orthogonalLoop=1;jettySize=auto;html=1;endArrow=none;endFill=0;" edge="1" parent="1" source="_uhkkYRvlDr_PO7esT6X-157">
          <mxGeometry relative="1" as="geometry">
            <mxPoint x="1335" y="240" as="targetPoint" />
          </mxGeometry>
        </mxCell>
        <mxCell id="_uhkkYRvlDr_PO7esT6X-157" value="" style="rounded=1;whiteSpace=wrap;html=1;fillColor=#b1ddf0;strokeColor=#10739e;" vertex="1" parent="1">
          <mxGeometry x="1260" y="260" width="150" height="90" as="geometry" />
        </mxCell>
        <mxCell id="_uhkkYRvlDr_PO7esT6X-158" value="adventure_script.py" style="text;html=1;strokeColor=none;fillColor=none;align=center;verticalAlign=middle;whiteSpace=wrap;rounded=0;fontSize=16;" vertex="1" parent="1">
          <mxGeometry x="1270" y="290" width="130" height="30" as="geometry" />
        </mxCell>
        <mxCell id="_uhkkYRvlDr_PO7esT6X-192" style="edgeStyle=orthogonalEdgeStyle;rounded=0;orthogonalLoop=1;jettySize=auto;html=1;endArrow=none;endFill=0;" edge="1" parent="1" source="_uhkkYRvlDr_PO7esT6X-161">
          <mxGeometry relative="1" as="geometry">
            <mxPoint x="1525" y="240" as="targetPoint" />
          </mxGeometry>
        </mxCell>
        <mxCell id="_uhkkYRvlDr_PO7esT6X-161" value="" style="rounded=1;whiteSpace=wrap;html=1;fillColor=#b1ddf0;strokeColor=#10739e;" vertex="1" parent="1">
          <mxGeometry x="1450" y="260" width="150" height="90" as="geometry" />
        </mxCell>
        <mxCell id="_uhkkYRvlDr_PO7esT6X-162" value="create_tables.py" style="text;html=1;strokeColor=none;fillColor=none;align=center;verticalAlign=middle;whiteSpace=wrap;rounded=0;fontSize=19;" vertex="1" parent="1">
          <mxGeometry x="1460" y="290" width="130" height="30" as="geometry" />
        </mxCell>
        <mxCell id="_uhkkYRvlDr_PO7esT6X-193" style="edgeStyle=orthogonalEdgeStyle;rounded=0;orthogonalLoop=1;jettySize=auto;html=1;endArrow=none;endFill=0;" edge="1" parent="1" source="_uhkkYRvlDr_PO7esT6X-166">
          <mxGeometry relative="1" as="geometry">
            <mxPoint x="1715" y="240" as="targetPoint" />
          </mxGeometry>
        </mxCell>
        <mxCell id="_uhkkYRvlDr_PO7esT6X-166" value="" style="rounded=1;whiteSpace=wrap;html=1;fillColor=#b1ddf0;strokeColor=#10739e;" vertex="1" parent="1">
          <mxGeometry x="1640" y="260" width="150" height="90" as="geometry" />
        </mxCell>
        <mxCell id="_uhkkYRvlDr_PO7esT6X-167" value="table_classes.py" style="text;html=1;strokeColor=none;fillColor=none;align=center;verticalAlign=middle;whiteSpace=wrap;rounded=0;fontSize=19;" vertex="1" parent="1">
          <mxGeometry x="1650" y="290" width="130" height="30" as="geometry" />
        </mxCell>
        <mxCell id="_uhkkYRvlDr_PO7esT6X-190" style="edgeStyle=orthogonalEdgeStyle;rounded=0;orthogonalLoop=1;jettySize=auto;html=1;entryX=0.5;entryY=1;entryDx=0;entryDy=0;endArrow=none;endFill=0;" edge="1" parent="1" source="_uhkkYRvlDr_PO7esT6X-168" target="_uhkkYRvlDr_PO7esT6X-139">
          <mxGeometry relative="1" as="geometry">
            <Array as="points">
              <mxPoint x="1905" y="240" />
              <mxPoint x="1525" y="240" />
            </Array>
          </mxGeometry>
        </mxCell>
        <mxCell id="_uhkkYRvlDr_PO7esT6X-168" value="" style="rounded=1;whiteSpace=wrap;html=1;fillColor=#b1ddf0;strokeColor=#10739e;" vertex="1" parent="1">
          <mxGeometry x="1830" y="260" width="150" height="90" as="geometry" />
        </mxCell>
        <mxCell id="_uhkkYRvlDr_PO7esT6X-169" value="__init__.py" style="text;html=1;strokeColor=none;fillColor=none;align=center;verticalAlign=middle;whiteSpace=wrap;rounded=0;fontSize=22;" vertex="1" parent="1">
          <mxGeometry x="1840" y="290" width="130" height="30" as="geometry" />
        </mxCell>
        <mxCell id="_uhkkYRvlDr_PO7esT6X-189" style="edgeStyle=orthogonalEdgeStyle;rounded=0;orthogonalLoop=1;jettySize=auto;html=1;entryX=0.5;entryY=1;entryDx=0;entryDy=0;endArrow=none;endFill=0;" edge="1" parent="1" source="_uhkkYRvlDr_PO7esT6X-170" target="_uhkkYRvlDr_PO7esT6X-139">
          <mxGeometry relative="1" as="geometry">
            <Array as="points">
              <mxPoint x="1145" y="240" />
              <mxPoint x="1525" y="240" />
            </Array>
          </mxGeometry>
        </mxCell>
        <mxCell id="_uhkkYRvlDr_PO7esT6X-170" value="" style="rounded=1;whiteSpace=wrap;html=1;fillColor=#e1d5e7;strokeColor=#9673a6;" vertex="1" parent="1">
          <mxGeometry x="1070" y="260" width="150" height="90" as="geometry" />
        </mxCell>
        <mxCell id="_uhkkYRvlDr_PO7esT6X-171" value="data" style="text;html=1;strokeColor=none;fillColor=none;align=center;verticalAlign=middle;whiteSpace=wrap;rounded=0;fontSize=22;" vertex="1" parent="1">
          <mxGeometry x="1080" y="290" width="130" height="30" as="geometry" />
        </mxCell>
        <mxCell id="_uhkkYRvlDr_PO7esT6X-172" style="edgeStyle=orthogonalEdgeStyle;rounded=0;orthogonalLoop=1;jettySize=auto;html=1;entryX=0.5;entryY=0;entryDx=0;entryDy=0;endArrow=none;endFill=0;" edge="1" parent="1" target="_uhkkYRvlDr_PO7esT6X-173">
          <mxGeometry relative="1" as="geometry">
            <mxPoint x="1145" y="350" as="sourcePoint" />
          </mxGeometry>
        </mxCell>
        <mxCell id="_uhkkYRvlDr_PO7esT6X-173" value="" style="rounded=1;whiteSpace=wrap;html=1;" vertex="1" parent="1">
          <mxGeometry x="1070" y="390" width="150" height="90" as="geometry" />
        </mxCell>
        <mxCell id="_uhkkYRvlDr_PO7esT6X-174" value="data.db" style="text;html=1;strokeColor=none;fillColor=none;align=center;verticalAlign=middle;whiteSpace=wrap;rounded=0;fontSize=19;" vertex="1" parent="1">
          <mxGeometry x="1080" y="420" width="130" height="30" as="geometry" />
        </mxCell>
        <mxCell id="_uhkkYRvlDr_PO7esT6X-228" value="" style="edgeStyle=orthogonalEdgeStyle;rounded=0;orthogonalLoop=1;jettySize=auto;html=1;endArrow=none;endFill=0;" edge="1" parent="1" source="_uhkkYRvlDr_PO7esT6X-194" target="_uhkkYRvlDr_PO7esT6X-201">
          <mxGeometry relative="1" as="geometry" />
        </mxCell>
        <mxCell id="_uhkkYRvlDr_PO7esT6X-194" value="" style="rounded=1;whiteSpace=wrap;html=1;fillColor=#e1d5e7;strokeColor=#9673a6;" vertex="1" parent="1">
          <mxGeometry x="-180" y="1290" width="150" height="90" as="geometry" />
        </mxCell>
        <mxCell id="_uhkkYRvlDr_PO7esT6X-195" value="routes" style="text;html=1;strokeColor=none;fillColor=none;align=center;verticalAlign=middle;whiteSpace=wrap;rounded=0;fontSize=22;" vertex="1" parent="1">
          <mxGeometry x="-170" y="1320" width="130" height="30" as="geometry" />
        </mxCell>
        <mxCell id="_uhkkYRvlDr_PO7esT6X-197" style="edgeStyle=orthogonalEdgeStyle;rounded=0;orthogonalLoop=1;jettySize=auto;html=1;endArrow=none;endFill=0;" edge="1" parent="1">
          <mxGeometry relative="1" as="geometry">
            <mxPoint x="-485" y="1430" as="targetPoint" />
            <mxPoint x="-484.9411764705883" y="1480" as="sourcePoint" />
          </mxGeometry>
        </mxCell>
        <mxCell id="_uhkkYRvlDr_PO7esT6X-200" style="edgeStyle=orthogonalEdgeStyle;rounded=0;orthogonalLoop=1;jettySize=auto;html=1;endArrow=none;endFill=0;" edge="1" source="_uhkkYRvlDr_PO7esT6X-201" parent="1">
          <mxGeometry relative="1" as="geometry">
            <mxPoint x="-105" y="1430" as="targetPoint" />
          </mxGeometry>
        </mxCell>
        <mxCell id="_uhkkYRvlDr_PO7esT6X-281" style="edgeStyle=orthogonalEdgeStyle;rounded=0;orthogonalLoop=1;jettySize=auto;html=1;entryX=0;entryY=0.5;entryDx=0;entryDy=0;endArrow=none;endFill=0;" edge="1" parent="1" source="_uhkkYRvlDr_PO7esT6X-201" target="_uhkkYRvlDr_PO7esT6X-276">
          <mxGeometry relative="1" as="geometry">
            <Array as="points">
              <mxPoint x="-105" y="1910" />
            </Array>
          </mxGeometry>
        </mxCell>
        <mxCell id="_uhkkYRvlDr_PO7esT6X-201" value="" style="rounded=1;whiteSpace=wrap;html=1;fillColor=#e1d5e7;strokeColor=#9673a6;" vertex="1" parent="1">
          <mxGeometry x="-180" y="1480" width="150" height="90" as="geometry" />
        </mxCell>
        <mxCell id="_uhkkYRvlDr_PO7esT6X-202" value="Review" style="text;html=1;strokeColor=none;fillColor=none;align=center;verticalAlign=middle;whiteSpace=wrap;rounded=0;fontSize=22;" vertex="1" parent="1">
          <mxGeometry x="-170" y="1510" width="130" height="30" as="geometry" />
        </mxCell>
        <mxCell id="_uhkkYRvlDr_PO7esT6X-203" style="edgeStyle=orthogonalEdgeStyle;rounded=0;orthogonalLoop=1;jettySize=auto;html=1;endArrow=none;endFill=0;" edge="1" source="_uhkkYRvlDr_PO7esT6X-204" parent="1">
          <mxGeometry relative="1" as="geometry">
            <mxPoint x="295" y="1430" as="targetPoint" />
          </mxGeometry>
        </mxCell>
        <mxCell id="_uhkkYRvlDr_PO7esT6X-267" style="edgeStyle=orthogonalEdgeStyle;rounded=0;orthogonalLoop=1;jettySize=auto;html=1;entryX=0.5;entryY=0;entryDx=0;entryDy=0;endArrow=none;endFill=0;" edge="1" parent="1" source="_uhkkYRvlDr_PO7esT6X-204" target="_uhkkYRvlDr_PO7esT6X-260">
          <mxGeometry relative="1" as="geometry">
            <Array as="points">
              <mxPoint x="295" y="1600" />
              <mxPoint x="610" y="1600" />
            </Array>
          </mxGeometry>
        </mxCell>
        <mxCell id="_uhkkYRvlDr_PO7esT6X-204" value="" style="rounded=1;whiteSpace=wrap;html=1;fillColor=#e1d5e7;strokeColor=#9673a6;" vertex="1" parent="1">
          <mxGeometry x="220" y="1480" width="150" height="90" as="geometry" />
        </mxCell>
        <mxCell id="_uhkkYRvlDr_PO7esT6X-205" value="Test" style="text;html=1;strokeColor=none;fillColor=none;align=center;verticalAlign=middle;whiteSpace=wrap;rounded=0;fontSize=22;" vertex="1" parent="1">
          <mxGeometry x="230" y="1510" width="130" height="30" as="geometry" />
        </mxCell>
        <mxCell id="_uhkkYRvlDr_PO7esT6X-206" style="edgeStyle=orthogonalEdgeStyle;rounded=0;orthogonalLoop=1;jettySize=auto;html=1;endArrow=none;endFill=0;" edge="1" source="_uhkkYRvlDr_PO7esT6X-207" parent="1">
          <mxGeometry relative="1" as="geometry">
            <mxPoint x="-675" y="1430" as="targetPoint" />
          </mxGeometry>
        </mxCell>
        <mxCell id="_uhkkYRvlDr_PO7esT6X-247" style="edgeStyle=orthogonalEdgeStyle;rounded=0;orthogonalLoop=1;jettySize=auto;html=1;entryX=0.5;entryY=0;entryDx=0;entryDy=0;endArrow=none;endFill=0;" edge="1" parent="1" source="_uhkkYRvlDr_PO7esT6X-207" target="_uhkkYRvlDr_PO7esT6X-240">
          <mxGeometry relative="1" as="geometry" />
        </mxCell>
        <mxCell id="_uhkkYRvlDr_PO7esT6X-207" value="" style="rounded=1;whiteSpace=wrap;html=1;fillColor=#e1d5e7;strokeColor=#9673a6;" vertex="1" parent="1">
          <mxGeometry x="-750" y="1480" width="150" height="90" as="geometry" />
        </mxCell>
        <mxCell id="_uhkkYRvlDr_PO7esT6X-208" value="Custom" style="text;html=1;strokeColor=none;fillColor=none;align=center;verticalAlign=middle;whiteSpace=wrap;rounded=0;fontSize=22;" vertex="1" parent="1">
          <mxGeometry x="-740" y="1510" width="130" height="30" as="geometry" />
        </mxCell>
        <mxCell id="_uhkkYRvlDr_PO7esT6X-209" style="edgeStyle=orthogonalEdgeStyle;rounded=0;orthogonalLoop=1;jettySize=auto;html=1;endArrow=none;endFill=0;" edge="1" source="_uhkkYRvlDr_PO7esT6X-210" parent="1">
          <mxGeometry relative="1" as="geometry">
            <mxPoint x="485" y="1430" as="targetPoint" />
          </mxGeometry>
        </mxCell>
        <mxCell id="_uhkkYRvlDr_PO7esT6X-210" value="" style="rounded=1;whiteSpace=wrap;html=1;fillColor=#dae8fc;strokeColor=#6c8ebf;" vertex="1" parent="1">
          <mxGeometry x="410" y="1480" width="150" height="90" as="geometry" />
        </mxCell>
        <mxCell id="_uhkkYRvlDr_PO7esT6X-211" value="LoggedInRoute.tsx" style="text;html=1;strokeColor=none;fillColor=none;align=center;verticalAlign=middle;whiteSpace=wrap;rounded=0;fontSize=16;" vertex="1" parent="1">
          <mxGeometry x="420" y="1510" width="130" height="30" as="geometry" />
        </mxCell>
        <mxCell id="_uhkkYRvlDr_PO7esT6X-212" style="edgeStyle=orthogonalEdgeStyle;rounded=0;orthogonalLoop=1;jettySize=auto;html=1;endArrow=none;endFill=0;" edge="1" source="_uhkkYRvlDr_PO7esT6X-213" parent="1">
          <mxGeometry relative="1" as="geometry">
            <mxPoint x="105" y="1430" as="targetPoint" />
          </mxGeometry>
        </mxCell>
        <mxCell id="_uhkkYRvlDr_PO7esT6X-275" style="edgeStyle=orthogonalEdgeStyle;rounded=0;orthogonalLoop=1;jettySize=auto;html=1;entryX=0.5;entryY=0;entryDx=0;entryDy=0;endArrow=none;endFill=0;" edge="1" parent="1" source="_uhkkYRvlDr_PO7esT6X-213" target="_uhkkYRvlDr_PO7esT6X-268">
          <mxGeometry relative="1" as="geometry" />
        </mxCell>
        <mxCell id="_uhkkYRvlDr_PO7esT6X-213" value="" style="rounded=1;whiteSpace=wrap;html=1;fillColor=#e1d5e7;strokeColor=#9673a6;" vertex="1" parent="1">
          <mxGeometry x="30" y="1480" width="150" height="90" as="geometry" />
        </mxCell>
        <mxCell id="_uhkkYRvlDr_PO7esT6X-214" value="Settings" style="text;html=1;strokeColor=none;fillColor=none;align=center;verticalAlign=middle;whiteSpace=wrap;rounded=0;fontSize=22;" vertex="1" parent="1">
          <mxGeometry x="40" y="1510" width="130" height="30" as="geometry" />
        </mxCell>
        <mxCell id="_uhkkYRvlDr_PO7esT6X-215" style="edgeStyle=orthogonalEdgeStyle;rounded=0;orthogonalLoop=1;jettySize=auto;html=1;endArrow=none;endFill=0;" edge="1" source="_uhkkYRvlDr_PO7esT6X-216" parent="1">
          <mxGeometry relative="1" as="geometry">
            <mxPoint x="-1635" y="1430" as="targetPoint" />
            <Array as="points">
              <mxPoint x="-1635" y="1450" />
              <mxPoint x="-1634" y="1420" />
            </Array>
          </mxGeometry>
        </mxCell>
        <mxCell id="_uhkkYRvlDr_PO7esT6X-325" style="edgeStyle=orthogonalEdgeStyle;rounded=0;orthogonalLoop=1;jettySize=auto;html=1;entryX=0.5;entryY=0;entryDx=0;entryDy=0;endArrow=none;endFill=0;" edge="1" parent="1" source="_uhkkYRvlDr_PO7esT6X-216" target="_uhkkYRvlDr_PO7esT6X-315">
          <mxGeometry relative="1" as="geometry">
            <Array as="points">
              <mxPoint x="-1635" y="1590" />
              <mxPoint x="-1885" y="1590" />
            </Array>
          </mxGeometry>
        </mxCell>
        <mxCell id="_uhkkYRvlDr_PO7esT6X-216" value="" style="rounded=1;whiteSpace=wrap;html=1;fillColor=#e1d5e7;strokeColor=#9673a6;" vertex="1" parent="1">
          <mxGeometry x="-1710" y="1480" width="150" height="90" as="geometry" />
        </mxCell>
        <mxCell id="_uhkkYRvlDr_PO7esT6X-217" value="Adventure" style="text;html=1;strokeColor=none;fillColor=none;align=center;verticalAlign=middle;whiteSpace=wrap;rounded=0;fontSize=22;" vertex="1" parent="1">
          <mxGeometry x="-1700" y="1510" width="130" height="30" as="geometry" />
        </mxCell>
        <mxCell id="_uhkkYRvlDr_PO7esT6X-218" style="edgeStyle=orthogonalEdgeStyle;rounded=0;orthogonalLoop=1;jettySize=auto;html=1;endArrow=none;endFill=0;" edge="1" source="_uhkkYRvlDr_PO7esT6X-219" parent="1">
          <mxGeometry relative="1" as="geometry">
            <mxPoint x="-1185" y="1430" as="targetPoint" />
          </mxGeometry>
        </mxCell>
        <mxCell id="_uhkkYRvlDr_PO7esT6X-219" value="" style="rounded=1;whiteSpace=wrap;html=1;fillColor=#e1d5e7;strokeColor=#9673a6;" vertex="1" parent="1">
          <mxGeometry x="-1260" y="1480" width="150" height="90" as="geometry" />
        </mxCell>
        <mxCell id="_uhkkYRvlDr_PO7esT6X-220" value="Authentication" style="text;html=1;strokeColor=none;fillColor=none;align=center;verticalAlign=middle;whiteSpace=wrap;rounded=0;fontSize=22;" vertex="1" parent="1">
          <mxGeometry x="-1250" y="1510" width="130" height="30" as="geometry" />
        </mxCell>
        <mxCell id="_uhkkYRvlDr_PO7esT6X-221" style="edgeStyle=orthogonalEdgeStyle;rounded=0;orthogonalLoop=1;jettySize=auto;html=1;endArrow=none;endFill=0;" edge="1" source="_uhkkYRvlDr_PO7esT6X-222" parent="1">
          <mxGeometry relative="1" as="geometry">
            <mxPoint x="-295" y="1430" as="targetPoint" />
          </mxGeometry>
        </mxCell>
        <mxCell id="_uhkkYRvlDr_PO7esT6X-238" style="edgeStyle=orthogonalEdgeStyle;rounded=0;orthogonalLoop=1;jettySize=auto;html=1;entryX=0.5;entryY=0;entryDx=0;entryDy=0;endArrow=none;endFill=0;" edge="1" parent="1" source="_uhkkYRvlDr_PO7esT6X-222" target="_uhkkYRvlDr_PO7esT6X-229">
          <mxGeometry relative="1" as="geometry" />
        </mxCell>
        <mxCell id="_uhkkYRvlDr_PO7esT6X-222" value="" style="rounded=1;whiteSpace=wrap;html=1;fillColor=#e1d5e7;strokeColor=#9673a6;" vertex="1" parent="1">
          <mxGeometry x="-370" y="1480" width="150" height="90" as="geometry" />
        </mxCell>
        <mxCell id="_uhkkYRvlDr_PO7esT6X-223" value="Home" style="text;html=1;strokeColor=none;fillColor=none;align=center;verticalAlign=middle;whiteSpace=wrap;rounded=0;fontSize=22;" vertex="1" parent="1">
          <mxGeometry x="-360" y="1510" width="130" height="30" as="geometry" />
        </mxCell>
        <mxCell id="_uhkkYRvlDr_PO7esT6X-224" value="" style="endArrow=none;html=1;rounded=0;" edge="1" parent="1">
          <mxGeometry width="50" height="50" relative="1" as="geometry">
            <mxPoint x="-1640" y="1430" as="sourcePoint" />
            <mxPoint x="680" y="1430" as="targetPoint" />
          </mxGeometry>
        </mxCell>
        <mxCell id="_uhkkYRvlDr_PO7esT6X-227" style="edgeStyle=orthogonalEdgeStyle;rounded=0;orthogonalLoop=1;jettySize=auto;html=1;endArrow=none;endFill=0;" edge="1" parent="1">
          <mxGeometry relative="1" as="geometry">
            <mxPoint x="675" y="1430" as="targetPoint" />
            <mxPoint x="675.0588235294117" y="1480" as="sourcePoint" />
          </mxGeometry>
        </mxCell>
        <mxCell id="_uhkkYRvlDr_PO7esT6X-229" value="" style="rounded=1;whiteSpace=wrap;html=1;fillColor=none;dashed=1;" vertex="1" parent="1">
          <mxGeometry x="-520" y="1630" width="380" height="260" as="geometry" />
        </mxCell>
        <mxCell id="_uhkkYRvlDr_PO7esT6X-230" value="" style="rounded=1;whiteSpace=wrap;html=1;fillColor=#f8cecc;strokeColor=#b85450;" vertex="1" parent="1">
          <mxGeometry x="-325" y="1650" width="150" height="90" as="geometry" />
        </mxCell>
        <mxCell id="_uhkkYRvlDr_PO7esT6X-231" value="index.css" style="text;html=1;strokeColor=none;fillColor=none;align=center;verticalAlign=middle;whiteSpace=wrap;rounded=0;fontSize=22;" vertex="1" parent="1">
          <mxGeometry x="-315" y="1680" width="130" height="30" as="geometry" />
        </mxCell>
        <mxCell id="_uhkkYRvlDr_PO7esT6X-232" value="" style="rounded=1;whiteSpace=wrap;html=1;fillColor=#dae8fc;strokeColor=#6c8ebf;" vertex="1" parent="1">
          <mxGeometry x="-485" y="1650" width="150" height="90" as="geometry" />
        </mxCell>
        <mxCell id="_uhkkYRvlDr_PO7esT6X-233" value="index.tsx" style="text;html=1;strokeColor=none;fillColor=none;align=center;verticalAlign=middle;whiteSpace=wrap;rounded=0;fontSize=22;" vertex="1" parent="1">
          <mxGeometry x="-475" y="1680" width="130" height="30" as="geometry" />
        </mxCell>
        <mxCell id="_uhkkYRvlDr_PO7esT6X-234" value="" style="rounded=1;whiteSpace=wrap;html=1;" vertex="1" parent="1">
          <mxGeometry x="-485" y="1770" width="150" height="90" as="geometry" />
        </mxCell>
        <mxCell id="_uhkkYRvlDr_PO7esT6X-235" value="icons.svg" style="text;html=1;strokeColor=none;fillColor=none;align=center;verticalAlign=middle;whiteSpace=wrap;rounded=0;fontSize=22;" vertex="1" parent="1">
          <mxGeometry x="-475" y="1800" width="130" height="30" as="geometry" />
        </mxCell>
        <mxCell id="_uhkkYRvlDr_PO7esT6X-240" value="" style="rounded=1;whiteSpace=wrap;html=1;fillColor=none;dashed=1;" vertex="1" parent="1">
          <mxGeometry x="-930" y="1630" width="380" height="260" as="geometry" />
        </mxCell>
        <mxCell id="_uhkkYRvlDr_PO7esT6X-241" value="" style="rounded=1;whiteSpace=wrap;html=1;fillColor=#f8cecc;strokeColor=#b85450;" vertex="1" parent="1">
          <mxGeometry x="-735" y="1650" width="150" height="90" as="geometry" />
        </mxCell>
        <mxCell id="_uhkkYRvlDr_PO7esT6X-242" value="index.css" style="text;html=1;strokeColor=none;fillColor=none;align=center;verticalAlign=middle;whiteSpace=wrap;rounded=0;fontSize=22;" vertex="1" parent="1">
          <mxGeometry x="-725" y="1680" width="130" height="30" as="geometry" />
        </mxCell>
        <mxCell id="_uhkkYRvlDr_PO7esT6X-243" value="" style="rounded=1;whiteSpace=wrap;html=1;fillColor=#dae8fc;strokeColor=#6c8ebf;" vertex="1" parent="1">
          <mxGeometry x="-895" y="1650" width="150" height="90" as="geometry" />
        </mxCell>
        <mxCell id="_uhkkYRvlDr_PO7esT6X-244" value="index.tsx" style="text;html=1;strokeColor=none;fillColor=none;align=center;verticalAlign=middle;whiteSpace=wrap;rounded=0;fontSize=22;" vertex="1" parent="1">
          <mxGeometry x="-885" y="1680" width="130" height="30" as="geometry" />
        </mxCell>
        <mxCell id="_uhkkYRvlDr_PO7esT6X-245" value="" style="rounded=1;whiteSpace=wrap;html=1;fillColor=#dae8fc;strokeColor=#6c8ebf;" vertex="1" parent="1">
          <mxGeometry x="-895" y="1770" width="150" height="90" as="geometry" />
        </mxCell>
        <mxCell id="_uhkkYRvlDr_PO7esT6X-246" value="CustomisationSlider.tsx" style="text;html=1;strokeColor=none;fillColor=none;align=center;verticalAlign=middle;whiteSpace=wrap;rounded=0;fontSize=14;" vertex="1" parent="1">
          <mxGeometry x="-885" y="1800" width="130" height="30" as="geometry" />
        </mxCell>
        <mxCell id="_uhkkYRvlDr_PO7esT6X-248" value="" style="rounded=1;whiteSpace=wrap;html=1;fillColor=none;dashed=1;" vertex="1" parent="1">
          <mxGeometry x="910" y="1630" width="380" height="260" as="geometry" />
        </mxCell>
        <mxCell id="_uhkkYRvlDr_PO7esT6X-249" value="" style="rounded=1;whiteSpace=wrap;html=1;fillColor=#f8cecc;strokeColor=#b85450;" vertex="1" parent="1">
          <mxGeometry x="1105" y="1650" width="150" height="90" as="geometry" />
        </mxCell>
        <mxCell id="_uhkkYRvlDr_PO7esT6X-250" value="index.css" style="text;html=1;strokeColor=none;fillColor=none;align=center;verticalAlign=middle;whiteSpace=wrap;rounded=0;fontSize=22;" vertex="1" parent="1">
          <mxGeometry x="1115" y="1680" width="130" height="30" as="geometry" />
        </mxCell>
        <mxCell id="_uhkkYRvlDr_PO7esT6X-251" value="" style="rounded=1;whiteSpace=wrap;html=1;fillColor=#dae8fc;strokeColor=#6c8ebf;" vertex="1" parent="1">
          <mxGeometry x="945" y="1650" width="150" height="90" as="geometry" />
        </mxCell>
        <mxCell id="_uhkkYRvlDr_PO7esT6X-252" value="index.tsx" style="text;html=1;strokeColor=none;fillColor=none;align=center;verticalAlign=middle;whiteSpace=wrap;rounded=0;fontSize=22;" vertex="1" parent="1">
          <mxGeometry x="955" y="1680" width="130" height="30" as="geometry" />
        </mxCell>
        <mxCell id="_uhkkYRvlDr_PO7esT6X-253" value="" style="rounded=1;whiteSpace=wrap;html=1;fillColor=#dae8fc;strokeColor=#6c8ebf;" vertex="1" parent="1">
          <mxGeometry x="945" y="1770" width="150" height="90" as="geometry" />
        </mxCell>
        <mxCell id="_uhkkYRvlDr_PO7esT6X-254" value="Game.tsx" style="text;html=1;strokeColor=none;fillColor=none;align=center;verticalAlign=middle;whiteSpace=wrap;rounded=0;fontSize=22;" vertex="1" parent="1">
          <mxGeometry x="955" y="1800" width="130" height="30" as="geometry" />
        </mxCell>
        <mxCell id="_uhkkYRvlDr_PO7esT6X-255" value="" style="rounded=1;whiteSpace=wrap;html=1;fillColor=#dae8fc;strokeColor=#6c8ebf;" vertex="1" parent="1">
          <mxGeometry x="-560" y="1480" width="150" height="90" as="geometry" />
        </mxCell>
        <mxCell id="_uhkkYRvlDr_PO7esT6X-256" value="index.tsx" style="text;html=1;strokeColor=none;fillColor=none;align=center;verticalAlign=middle;whiteSpace=wrap;rounded=0;fontSize=22;" vertex="1" parent="1">
          <mxGeometry x="-550" y="1510" width="130" height="30" as="geometry" />
        </mxCell>
        <mxCell id="_uhkkYRvlDr_PO7esT6X-259" style="edgeStyle=orthogonalEdgeStyle;rounded=0;orthogonalLoop=1;jettySize=auto;html=1;endArrow=none;endFill=0;" edge="1" parent="1" source="_uhkkYRvlDr_PO7esT6X-257" target="_uhkkYRvlDr_PO7esT6X-248">
          <mxGeometry relative="1" as="geometry">
            <Array as="points">
              <mxPoint x="675" y="1600" />
              <mxPoint x="1100" y="1600" />
            </Array>
          </mxGeometry>
        </mxCell>
        <mxCell id="_uhkkYRvlDr_PO7esT6X-257" value="" style="rounded=1;whiteSpace=wrap;html=1;fillColor=#e1d5e7;strokeColor=#9673a6;" vertex="1" parent="1">
          <mxGeometry x="600" y="1480" width="150" height="90" as="geometry" />
        </mxCell>
        <mxCell id="_uhkkYRvlDr_PO7esT6X-258" value="History" style="text;html=1;strokeColor=none;fillColor=none;align=center;verticalAlign=middle;whiteSpace=wrap;rounded=0;fontSize=22;" vertex="1" parent="1">
          <mxGeometry x="610" y="1510" width="130" height="30" as="geometry" />
        </mxCell>
        <mxCell id="_uhkkYRvlDr_PO7esT6X-260" value="" style="rounded=1;whiteSpace=wrap;html=1;fillColor=none;dashed=1;" vertex="1" parent="1">
          <mxGeometry x="420" y="1630" width="380" height="260" as="geometry" />
        </mxCell>
        <mxCell id="_uhkkYRvlDr_PO7esT6X-261" value="" style="rounded=1;whiteSpace=wrap;html=1;fillColor=#f8cecc;strokeColor=#b85450;" vertex="1" parent="1">
          <mxGeometry x="615" y="1650" width="150" height="90" as="geometry" />
        </mxCell>
        <mxCell id="_uhkkYRvlDr_PO7esT6X-262" value="index.css" style="text;html=1;strokeColor=none;fillColor=none;align=center;verticalAlign=middle;whiteSpace=wrap;rounded=0;fontSize=22;" vertex="1" parent="1">
          <mxGeometry x="625" y="1680" width="130" height="30" as="geometry" />
        </mxCell>
        <mxCell id="_uhkkYRvlDr_PO7esT6X-263" value="" style="rounded=1;whiteSpace=wrap;html=1;fillColor=#dae8fc;strokeColor=#6c8ebf;" vertex="1" parent="1">
          <mxGeometry x="455" y="1650" width="150" height="90" as="geometry" />
        </mxCell>
        <mxCell id="_uhkkYRvlDr_PO7esT6X-264" value="index.tsx" style="text;html=1;strokeColor=none;fillColor=none;align=center;verticalAlign=middle;whiteSpace=wrap;rounded=0;fontSize=22;" vertex="1" parent="1">
          <mxGeometry x="465" y="1680" width="130" height="30" as="geometry" />
        </mxCell>
        <mxCell id="_uhkkYRvlDr_PO7esT6X-265" value="" style="rounded=1;whiteSpace=wrap;html=1;fillColor=#dae8fc;strokeColor=#6c8ebf;" vertex="1" parent="1">
          <mxGeometry x="455" y="1770" width="150" height="90" as="geometry" />
        </mxCell>
        <mxCell id="_uhkkYRvlDr_PO7esT6X-266" value="positions.ts" style="text;html=1;strokeColor=none;fillColor=none;align=center;verticalAlign=middle;whiteSpace=wrap;rounded=0;fontSize=22;" vertex="1" parent="1">
          <mxGeometry x="465" y="1800" width="130" height="30" as="geometry" />
        </mxCell>
        <mxCell id="_uhkkYRvlDr_PO7esT6X-268" value="" style="rounded=1;whiteSpace=wrap;html=1;fillColor=none;dashed=1;" vertex="1" parent="1">
          <mxGeometry x="20" y="1630" width="380" height="140" as="geometry" />
        </mxCell>
        <mxCell id="_uhkkYRvlDr_PO7esT6X-269" value="" style="rounded=1;whiteSpace=wrap;html=1;fillColor=#f8cecc;strokeColor=#b85450;" vertex="1" parent="1">
          <mxGeometry x="215" y="1650" width="150" height="90" as="geometry" />
        </mxCell>
        <mxCell id="_uhkkYRvlDr_PO7esT6X-270" value="index.css" style="text;html=1;strokeColor=none;fillColor=none;align=center;verticalAlign=middle;whiteSpace=wrap;rounded=0;fontSize=22;" vertex="1" parent="1">
          <mxGeometry x="225" y="1680" width="130" height="30" as="geometry" />
        </mxCell>
        <mxCell id="_uhkkYRvlDr_PO7esT6X-271" value="" style="rounded=1;whiteSpace=wrap;html=1;fillColor=#dae8fc;strokeColor=#6c8ebf;" vertex="1" parent="1">
          <mxGeometry x="55" y="1650" width="150" height="90" as="geometry" />
        </mxCell>
        <mxCell id="_uhkkYRvlDr_PO7esT6X-272" value="index.tsx" style="text;html=1;strokeColor=none;fillColor=none;align=center;verticalAlign=middle;whiteSpace=wrap;rounded=0;fontSize=22;" vertex="1" parent="1">
          <mxGeometry x="65" y="1680" width="130" height="30" as="geometry" />
        </mxCell>
        <mxCell id="_uhkkYRvlDr_PO7esT6X-276" value="" style="rounded=1;whiteSpace=wrap;html=1;fillColor=none;dashed=1;" vertex="1" parent="1">
          <mxGeometry x="20" y="1790" width="380" height="140" as="geometry" />
        </mxCell>
        <mxCell id="_uhkkYRvlDr_PO7esT6X-277" value="" style="rounded=1;whiteSpace=wrap;html=1;fillColor=#f8cecc;strokeColor=#b85450;" vertex="1" parent="1">
          <mxGeometry x="215" y="1810" width="150" height="90" as="geometry" />
        </mxCell>
        <mxCell id="_uhkkYRvlDr_PO7esT6X-278" value="index.css" style="text;html=1;strokeColor=none;fillColor=none;align=center;verticalAlign=middle;whiteSpace=wrap;rounded=0;fontSize=22;" vertex="1" parent="1">
          <mxGeometry x="225" y="1840" width="130" height="30" as="geometry" />
        </mxCell>
        <mxCell id="_uhkkYRvlDr_PO7esT6X-279" value="" style="rounded=1;whiteSpace=wrap;html=1;fillColor=#dae8fc;strokeColor=#6c8ebf;" vertex="1" parent="1">
          <mxGeometry x="55" y="1810" width="150" height="90" as="geometry" />
        </mxCell>
        <mxCell id="_uhkkYRvlDr_PO7esT6X-280" value="index.tsx" style="text;html=1;strokeColor=none;fillColor=none;align=center;verticalAlign=middle;whiteSpace=wrap;rounded=0;fontSize=22;" vertex="1" parent="1">
          <mxGeometry x="65" y="1840" width="130" height="30" as="geometry" />
        </mxCell>
        <mxCell id="_uhkkYRvlDr_PO7esT6X-299" style="edgeStyle=orthogonalEdgeStyle;rounded=0;orthogonalLoop=1;jettySize=auto;html=1;entryX=0.5;entryY=0;entryDx=0;entryDy=0;endArrow=none;endFill=0;" edge="1" parent="1" source="_uhkkYRvlDr_PO7esT6X-283" target="_uhkkYRvlDr_PO7esT6X-297">
          <mxGeometry relative="1" as="geometry" />
        </mxCell>
        <mxCell id="_uhkkYRvlDr_PO7esT6X-302" style="edgeStyle=orthogonalEdgeStyle;rounded=0;orthogonalLoop=1;jettySize=auto;html=1;entryX=0.5;entryY=1;entryDx=0;entryDy=0;endArrow=none;endFill=0;" edge="1" parent="1" source="_uhkkYRvlDr_PO7esT6X-283" target="_uhkkYRvlDr_PO7esT6X-219">
          <mxGeometry relative="1" as="geometry">
            <Array as="points">
              <mxPoint x="-1345" y="1590" />
              <mxPoint x="-1185" y="1590" />
            </Array>
          </mxGeometry>
        </mxCell>
        <mxCell id="_uhkkYRvlDr_PO7esT6X-283" value="" style="rounded=1;whiteSpace=wrap;html=1;fillColor=#e1d5e7;strokeColor=#9673a6;" vertex="1" parent="1">
          <mxGeometry x="-1420" y="1610" width="150" height="90" as="geometry" />
        </mxCell>
        <mxCell id="_uhkkYRvlDr_PO7esT6X-284" value="Login" style="text;html=1;strokeColor=none;fillColor=none;align=center;verticalAlign=middle;whiteSpace=wrap;rounded=0;fontSize=22;" vertex="1" parent="1">
          <mxGeometry x="-1410" y="1640" width="130" height="30" as="geometry" />
        </mxCell>
        <mxCell id="_uhkkYRvlDr_PO7esT6X-300" style="edgeStyle=orthogonalEdgeStyle;rounded=0;orthogonalLoop=1;jettySize=auto;html=1;entryX=0.5;entryY=0;entryDx=0;entryDy=0;endArrow=none;endFill=0;" edge="1" parent="1" source="_uhkkYRvlDr_PO7esT6X-285" target="_uhkkYRvlDr_PO7esT6X-291">
          <mxGeometry relative="1" as="geometry" />
        </mxCell>
        <mxCell id="_uhkkYRvlDr_PO7esT6X-303" style="edgeStyle=orthogonalEdgeStyle;rounded=0;orthogonalLoop=1;jettySize=auto;html=1;entryX=0.5;entryY=1;entryDx=0;entryDy=0;endArrow=none;endFill=0;" edge="1" parent="1" source="_uhkkYRvlDr_PO7esT6X-285" target="_uhkkYRvlDr_PO7esT6X-219">
          <mxGeometry relative="1" as="geometry">
            <Array as="points">
              <mxPoint x="-1025" y="1590" />
              <mxPoint x="-1185" y="1590" />
            </Array>
          </mxGeometry>
        </mxCell>
        <mxCell id="_uhkkYRvlDr_PO7esT6X-285" value="" style="rounded=1;whiteSpace=wrap;html=1;fillColor=#e1d5e7;strokeColor=#9673a6;" vertex="1" parent="1">
          <mxGeometry x="-1100" y="1610" width="150" height="90" as="geometry" />
        </mxCell>
        <mxCell id="_uhkkYRvlDr_PO7esT6X-286" value="Signup" style="text;html=1;strokeColor=none;fillColor=none;align=center;verticalAlign=middle;whiteSpace=wrap;rounded=0;fontSize=22;" vertex="1" parent="1">
          <mxGeometry x="-1090" y="1640" width="130" height="30" as="geometry" />
        </mxCell>
        <mxCell id="_uhkkYRvlDr_PO7esT6X-307" style="edgeStyle=orthogonalEdgeStyle;rounded=0;orthogonalLoop=1;jettySize=auto;html=1;endArrow=none;endFill=0;" edge="1" parent="1" source="_uhkkYRvlDr_PO7esT6X-287">
          <mxGeometry relative="1" as="geometry">
            <mxPoint x="-1185" y="1580" as="targetPoint" />
          </mxGeometry>
        </mxCell>
        <mxCell id="_uhkkYRvlDr_PO7esT6X-287" value="" style="rounded=1;whiteSpace=wrap;html=1;fillColor=#f8cecc;strokeColor=#b85450;" vertex="1" parent="1">
          <mxGeometry x="-1260" y="1610" width="150" height="90" as="geometry" />
        </mxCell>
        <mxCell id="_uhkkYRvlDr_PO7esT6X-288" value="index.css" style="text;html=1;strokeColor=none;fillColor=none;align=center;verticalAlign=middle;whiteSpace=wrap;rounded=0;fontSize=22;" vertex="1" parent="1">
          <mxGeometry x="-1250" y="1640" width="130" height="30" as="geometry" />
        </mxCell>
        <mxCell id="_uhkkYRvlDr_PO7esT6X-291" value="" style="rounded=1;whiteSpace=wrap;html=1;fillColor=#dae8fc;strokeColor=#6c8ebf;" vertex="1" parent="1">
          <mxGeometry x="-1100" y="1735" width="150" height="90" as="geometry" />
        </mxCell>
        <mxCell id="_uhkkYRvlDr_PO7esT6X-292" value="index.tsx" style="text;html=1;strokeColor=none;fillColor=none;align=center;verticalAlign=middle;whiteSpace=wrap;rounded=0;fontSize=22;" vertex="1" parent="1">
          <mxGeometry x="-1090" y="1765" width="130" height="30" as="geometry" />
        </mxCell>
        <mxCell id="_uhkkYRvlDr_PO7esT6X-297" value="" style="rounded=1;whiteSpace=wrap;html=1;fillColor=#dae8fc;strokeColor=#6c8ebf;" vertex="1" parent="1">
          <mxGeometry x="-1420" y="1735" width="150" height="90" as="geometry" />
        </mxCell>
        <mxCell id="_uhkkYRvlDr_PO7esT6X-298" value="index.tsx" style="text;html=1;strokeColor=none;fillColor=none;align=center;verticalAlign=middle;whiteSpace=wrap;rounded=0;fontSize=22;" vertex="1" parent="1">
          <mxGeometry x="-1410" y="1765" width="130" height="30" as="geometry" />
        </mxCell>
        <mxCell id="_uhkkYRvlDr_PO7esT6X-327" style="edgeStyle=orthogonalEdgeStyle;rounded=0;orthogonalLoop=1;jettySize=auto;html=1;endArrow=none;endFill=0;" edge="1" parent="1" source="_uhkkYRvlDr_PO7esT6X-308">
          <mxGeometry relative="1" as="geometry">
            <mxPoint x="-1725" y="1590" as="targetPoint" />
          </mxGeometry>
        </mxCell>
        <mxCell id="_uhkkYRvlDr_PO7esT6X-308" value="" style="rounded=1;whiteSpace=wrap;html=1;fillColor=#dae8fc;strokeColor=#6c8ebf;" vertex="1" parent="1">
          <mxGeometry x="-1800" y="1610" width="150" height="90" as="geometry" />
        </mxCell>
        <mxCell id="_uhkkYRvlDr_PO7esT6X-309" value="index.tsx" style="text;html=1;strokeColor=none;fillColor=none;align=center;verticalAlign=middle;whiteSpace=wrap;rounded=0;fontSize=22;" vertex="1" parent="1">
          <mxGeometry x="-1790" y="1640" width="130" height="30" as="geometry" />
        </mxCell>
        <mxCell id="_uhkkYRvlDr_PO7esT6X-326" style="edgeStyle=orthogonalEdgeStyle;rounded=0;orthogonalLoop=1;jettySize=auto;html=1;endArrow=none;endFill=0;" edge="1" parent="1" source="_uhkkYRvlDr_PO7esT6X-313">
          <mxGeometry relative="1" as="geometry">
            <mxPoint x="-1640" y="1590" as="targetPoint" />
          </mxGeometry>
        </mxCell>
        <mxCell id="_uhkkYRvlDr_PO7esT6X-313" value="" style="rounded=1;whiteSpace=wrap;html=1;fillColor=#f8cecc;strokeColor=#b85450;" vertex="1" parent="1">
          <mxGeometry x="-1640" y="1610" width="150" height="90" as="geometry" />
        </mxCell>
        <mxCell id="_uhkkYRvlDr_PO7esT6X-314" value="index.css" style="text;html=1;strokeColor=none;fillColor=none;align=center;verticalAlign=middle;whiteSpace=wrap;rounded=0;fontSize=22;" vertex="1" parent="1">
          <mxGeometry x="-1630" y="1640" width="130" height="30" as="geometry" />
        </mxCell>
        <mxCell id="_uhkkYRvlDr_PO7esT6X-315" value="" style="rounded=1;whiteSpace=wrap;html=1;fillColor=#e1d5e7;strokeColor=#9673a6;" vertex="1" parent="1">
          <mxGeometry x="-1960" y="1610" width="150" height="90" as="geometry" />
        </mxCell>
        <mxCell id="_uhkkYRvlDr_PO7esT6X-316" value="AdventureResults" style="text;html=1;strokeColor=none;fillColor=none;align=center;verticalAlign=middle;whiteSpace=wrap;rounded=0;fontSize=17;" vertex="1" parent="1">
          <mxGeometry x="-1950" y="1640" width="130" height="30" as="geometry" />
        </mxCell>
        <mxCell id="_uhkkYRvlDr_PO7esT6X-330" style="edgeStyle=orthogonalEdgeStyle;rounded=0;orthogonalLoop=1;jettySize=auto;html=1;endArrow=none;endFill=0;" edge="1" parent="1" source="_uhkkYRvlDr_PO7esT6X-319">
          <mxGeometry relative="1" as="geometry">
            <mxPoint x="-1890" y="1710" as="targetPoint" />
            <Array as="points">
              <mxPoint x="-1805" y="1715" />
              <mxPoint x="-1890" y="1715" />
            </Array>
          </mxGeometry>
        </mxCell>
        <mxCell id="_uhkkYRvlDr_PO7esT6X-319" value="" style="rounded=1;whiteSpace=wrap;html=1;fillColor=#dae8fc;strokeColor=#6c8ebf;" vertex="1" parent="1">
          <mxGeometry x="-1880" y="1735" width="150" height="90" as="geometry" />
        </mxCell>
        <mxCell id="_uhkkYRvlDr_PO7esT6X-320" value="index.tsx" style="text;html=1;strokeColor=none;fillColor=none;align=center;verticalAlign=middle;whiteSpace=wrap;rounded=0;fontSize=22;" vertex="1" parent="1">
          <mxGeometry x="-1870" y="1765" width="130" height="30" as="geometry" />
        </mxCell>
        <mxCell id="_uhkkYRvlDr_PO7esT6X-328" style="edgeStyle=orthogonalEdgeStyle;rounded=0;orthogonalLoop=1;jettySize=auto;html=1;entryX=0.5;entryY=1;entryDx=0;entryDy=0;endArrow=none;endFill=0;" edge="1" parent="1" source="_uhkkYRvlDr_PO7esT6X-323" target="_uhkkYRvlDr_PO7esT6X-315">
          <mxGeometry relative="1" as="geometry" />
        </mxCell>
        <mxCell id="_uhkkYRvlDr_PO7esT6X-323" value="" style="rounded=1;whiteSpace=wrap;html=1;fillColor=#f8cecc;strokeColor=#b85450;" vertex="1" parent="1">
          <mxGeometry x="-2040" y="1735" width="150" height="90" as="geometry" />
        </mxCell>
        <mxCell id="_uhkkYRvlDr_PO7esT6X-324" value="index.css" style="text;html=1;strokeColor=none;fillColor=none;align=center;verticalAlign=middle;whiteSpace=wrap;rounded=0;fontSize=22;" vertex="1" parent="1">
          <mxGeometry x="-2030" y="1765" width="130" height="30" as="geometry" />
        </mxCell>
        <mxCell id="_uhkkYRvlDr_PO7esT6X-332" value="" style="rounded=1;whiteSpace=wrap;html=1;fillColor=#e1d5e7;strokeColor=#9673a6;" vertex="1" parent="1">
          <mxGeometry x="420" y="580" width="150" height="90" as="geometry" />
        </mxCell>
        <mxCell id="_uhkkYRvlDr_PO7esT6X-333" value="engine" style="text;html=1;strokeColor=none;fillColor=none;align=center;verticalAlign=middle;whiteSpace=wrap;rounded=0;fontSize=22;" vertex="1" parent="1">
          <mxGeometry x="430" y="610" width="130" height="30" as="geometry" />
        </mxCell>
        <mxCell id="_uhkkYRvlDr_PO7esT6X-434" style="edgeStyle=orthogonalEdgeStyle;rounded=0;orthogonalLoop=1;jettySize=auto;html=1;endArrow=none;endFill=0;" edge="1" parent="1" source="_uhkkYRvlDr_PO7esT6X-335">
          <mxGeometry relative="1" as="geometry">
            <mxPoint x="495" y="690" as="targetPoint" />
          </mxGeometry>
        </mxCell>
        <mxCell id="_uhkkYRvlDr_PO7esT6X-335" value="" style="rounded=1;whiteSpace=wrap;html=1;fillColor=#e1d5e7;strokeColor=#9673a6;" vertex="1" parent="1">
          <mxGeometry x="420" y="730" width="150" height="90" as="geometry" />
        </mxCell>
        <mxCell id="_uhkkYRvlDr_PO7esT6X-336" value="Pieces" style="text;html=1;strokeColor=none;fillColor=none;align=center;verticalAlign=middle;whiteSpace=wrap;rounded=0;fontSize=22;" vertex="1" parent="1">
          <mxGeometry x="430" y="760" width="130" height="30" as="geometry" />
        </mxCell>
        <mxCell id="_uhkkYRvlDr_PO7esT6X-366" style="edgeStyle=orthogonalEdgeStyle;rounded=0;orthogonalLoop=1;jettySize=auto;html=1;entryX=0.5;entryY=0;entryDx=0;entryDy=0;endArrow=none;endFill=0;" edge="1" parent="1" source="_uhkkYRvlDr_PO7esT6X-339" target="_uhkkYRvlDr_PO7esT6X-364">
          <mxGeometry relative="1" as="geometry" />
        </mxCell>
        <mxCell id="_uhkkYRvlDr_PO7esT6X-429" style="edgeStyle=orthogonalEdgeStyle;rounded=0;orthogonalLoop=1;jettySize=auto;html=1;entryX=0.5;entryY=1;entryDx=0;entryDy=0;endArrow=none;endFill=0;" edge="1" parent="1" source="_uhkkYRvlDr_PO7esT6X-339" target="_uhkkYRvlDr_PO7esT6X-332">
          <mxGeometry relative="1" as="geometry">
            <Array as="points">
              <mxPoint x="-455" y="700" />
              <mxPoint x="495" y="700" />
            </Array>
          </mxGeometry>
        </mxCell>
        <mxCell id="_uhkkYRvlDr_PO7esT6X-339" value="" style="rounded=1;whiteSpace=wrap;html=1;fillColor=#e1d5e7;strokeColor=#9673a6;" vertex="1" parent="1">
          <mxGeometry x="-530" y="730" width="150" height="90" as="geometry" />
        </mxCell>
        <mxCell id="_uhkkYRvlDr_PO7esT6X-340" value="Testing" style="text;html=1;strokeColor=none;fillColor=none;align=center;verticalAlign=middle;whiteSpace=wrap;rounded=0;fontSize=22;" vertex="1" parent="1">
          <mxGeometry x="-520" y="760" width="130" height="30" as="geometry" />
        </mxCell>
        <mxCell id="_uhkkYRvlDr_PO7esT6X-437" style="edgeStyle=orthogonalEdgeStyle;rounded=0;orthogonalLoop=1;jettySize=auto;html=1;endArrow=none;endFill=0;" edge="1" parent="1" source="_uhkkYRvlDr_PO7esT6X-341">
          <mxGeometry relative="1" as="geometry">
            <mxPoint x="875" y="700" as="targetPoint" />
          </mxGeometry>
        </mxCell>
        <mxCell id="_uhkkYRvlDr_PO7esT6X-341" value="" style="rounded=1;whiteSpace=wrap;html=1;fillColor=#dae8fc;strokeColor=#6c8ebf;" vertex="1" parent="1">
          <mxGeometry x="800" y="730" width="150" height="90" as="geometry" />
        </mxCell>
        <mxCell id="_uhkkYRvlDr_PO7esT6X-342" value="Board.ts" style="text;html=1;strokeColor=none;fillColor=none;align=center;verticalAlign=middle;whiteSpace=wrap;rounded=0;fontSize=22;" vertex="1" parent="1">
          <mxGeometry x="810" y="760" width="130" height="30" as="geometry" />
        </mxCell>
        <mxCell id="_uhkkYRvlDr_PO7esT6X-438" style="edgeStyle=orthogonalEdgeStyle;rounded=0;orthogonalLoop=1;jettySize=auto;html=1;endArrow=none;endFill=0;" edge="1" parent="1" source="_uhkkYRvlDr_PO7esT6X-343">
          <mxGeometry relative="1" as="geometry">
            <mxPoint x="685" y="700" as="targetPoint" />
          </mxGeometry>
        </mxCell>
        <mxCell id="_uhkkYRvlDr_PO7esT6X-343" value="" style="rounded=1;whiteSpace=wrap;html=1;fillColor=#dae8fc;strokeColor=#6c8ebf;" vertex="1" parent="1">
          <mxGeometry x="610" y="730" width="150" height="90" as="geometry" />
        </mxCell>
        <mxCell id="_uhkkYRvlDr_PO7esT6X-344" value="Engine.ts" style="text;html=1;strokeColor=none;fillColor=none;align=center;verticalAlign=middle;whiteSpace=wrap;rounded=0;fontSize=22;" vertex="1" parent="1">
          <mxGeometry x="620" y="760" width="130" height="30" as="geometry" />
        </mxCell>
        <mxCell id="_uhkkYRvlDr_PO7esT6X-436" style="edgeStyle=orthogonalEdgeStyle;rounded=0;orthogonalLoop=1;jettySize=auto;html=1;endArrow=none;endFill=0;" edge="1" parent="1" source="_uhkkYRvlDr_PO7esT6X-345">
          <mxGeometry relative="1" as="geometry">
            <mxPoint x="1065" y="700" as="targetPoint" />
          </mxGeometry>
        </mxCell>
        <mxCell id="_uhkkYRvlDr_PO7esT6X-345" value="" style="rounded=1;whiteSpace=wrap;html=1;fillColor=#dae8fc;strokeColor=#6c8ebf;" vertex="1" parent="1">
          <mxGeometry x="990" y="730" width="150" height="90" as="geometry" />
        </mxCell>
        <mxCell id="_uhkkYRvlDr_PO7esT6X-346" value="Evaluation.ts" style="text;html=1;strokeColor=none;fillColor=none;align=center;verticalAlign=middle;whiteSpace=wrap;rounded=0;fontSize=22;" vertex="1" parent="1">
          <mxGeometry x="1000" y="760" width="130" height="30" as="geometry" />
        </mxCell>
        <mxCell id="_uhkkYRvlDr_PO7esT6X-435" style="edgeStyle=orthogonalEdgeStyle;rounded=0;orthogonalLoop=1;jettySize=auto;html=1;entryX=0.5;entryY=1;entryDx=0;entryDy=0;endArrow=none;endFill=0;" edge="1" parent="1" source="_uhkkYRvlDr_PO7esT6X-347" target="_uhkkYRvlDr_PO7esT6X-332">
          <mxGeometry relative="1" as="geometry">
            <Array as="points">
              <mxPoint x="1255" y="700" />
              <mxPoint x="495" y="700" />
            </Array>
          </mxGeometry>
        </mxCell>
        <mxCell id="_uhkkYRvlDr_PO7esT6X-347" value="" style="rounded=1;whiteSpace=wrap;html=1;fillColor=#dae8fc;strokeColor=#6c8ebf;" vertex="1" parent="1">
          <mxGeometry x="1180" y="730" width="150" height="90" as="geometry" />
        </mxCell>
        <mxCell id="_uhkkYRvlDr_PO7esT6X-348" value="Move.ts" style="text;html=1;strokeColor=none;fillColor=none;align=center;verticalAlign=middle;whiteSpace=wrap;rounded=0;fontSize=22;" vertex="1" parent="1">
          <mxGeometry x="1190" y="760" width="130" height="30" as="geometry" />
        </mxCell>
        <mxCell id="_uhkkYRvlDr_PO7esT6X-432" style="edgeStyle=orthogonalEdgeStyle;rounded=0;orthogonalLoop=1;jettySize=auto;html=1;endArrow=none;endFill=0;" edge="1" parent="1" source="_uhkkYRvlDr_PO7esT6X-349">
          <mxGeometry relative="1" as="geometry">
            <mxPoint x="115" y="700" as="targetPoint" />
          </mxGeometry>
        </mxCell>
        <mxCell id="_uhkkYRvlDr_PO7esT6X-349" value="" style="rounded=1;whiteSpace=wrap;html=1;fillColor=#dae8fc;strokeColor=#6c8ebf;" vertex="1" parent="1">
          <mxGeometry x="40" y="730" width="150" height="90" as="geometry" />
        </mxCell>
        <mxCell id="_uhkkYRvlDr_PO7esT6X-350" value="Search.ts" style="text;html=1;strokeColor=none;fillColor=none;align=center;verticalAlign=middle;whiteSpace=wrap;rounded=0;fontSize=22;" vertex="1" parent="1">
          <mxGeometry x="50" y="760" width="130" height="30" as="geometry" />
        </mxCell>
        <mxCell id="_uhkkYRvlDr_PO7esT6X-433" style="edgeStyle=orthogonalEdgeStyle;rounded=0;orthogonalLoop=1;jettySize=auto;html=1;endArrow=none;endFill=0;" edge="1" parent="1" source="_uhkkYRvlDr_PO7esT6X-351">
          <mxGeometry relative="1" as="geometry">
            <mxPoint x="305" y="700" as="targetPoint" />
          </mxGeometry>
        </mxCell>
        <mxCell id="_uhkkYRvlDr_PO7esT6X-351" value="" style="rounded=1;whiteSpace=wrap;html=1;fillColor=#dae8fc;strokeColor=#6c8ebf;" vertex="1" parent="1">
          <mxGeometry x="230" y="730" width="150" height="90" as="geometry" />
        </mxCell>
        <mxCell id="_uhkkYRvlDr_PO7esT6X-352" value="SquareCollection.ts" style="text;html=1;strokeColor=none;fillColor=none;align=center;verticalAlign=middle;whiteSpace=wrap;rounded=0;fontSize=17;" vertex="1" parent="1">
          <mxGeometry x="240" y="760" width="130" height="30" as="geometry" />
        </mxCell>
        <mxCell id="_uhkkYRvlDr_PO7esT6X-431" style="edgeStyle=orthogonalEdgeStyle;rounded=0;orthogonalLoop=1;jettySize=auto;html=1;endArrow=none;endFill=0;" edge="1" parent="1" source="_uhkkYRvlDr_PO7esT6X-358">
          <mxGeometry relative="1" as="geometry">
            <mxPoint x="-75" y="700" as="targetPoint" />
          </mxGeometry>
        </mxCell>
        <mxCell id="_uhkkYRvlDr_PO7esT6X-358" value="" style="rounded=1;whiteSpace=wrap;html=1;fillColor=#dae8fc;strokeColor=#6c8ebf;" vertex="1" parent="1">
          <mxGeometry x="-150" y="730" width="150" height="90" as="geometry" />
        </mxCell>
        <mxCell id="_uhkkYRvlDr_PO7esT6X-359" value="constants.ts" style="text;html=1;strokeColor=none;fillColor=none;align=center;verticalAlign=middle;whiteSpace=wrap;rounded=0;fontSize=22;" vertex="1" parent="1">
          <mxGeometry x="-140" y="760" width="130" height="30" as="geometry" />
        </mxCell>
        <mxCell id="_uhkkYRvlDr_PO7esT6X-430" style="edgeStyle=orthogonalEdgeStyle;rounded=0;orthogonalLoop=1;jettySize=auto;html=1;endArrow=none;endFill=0;" edge="1" parent="1" source="_uhkkYRvlDr_PO7esT6X-362">
          <mxGeometry relative="1" as="geometry">
            <mxPoint x="-265" y="700" as="targetPoint" />
          </mxGeometry>
        </mxCell>
        <mxCell id="_uhkkYRvlDr_PO7esT6X-362" value="" style="rounded=1;whiteSpace=wrap;html=1;fillColor=#dae8fc;strokeColor=#6c8ebf;" vertex="1" parent="1">
          <mxGeometry x="-340" y="730" width="150" height="90" as="geometry" />
        </mxCell>
        <mxCell id="_uhkkYRvlDr_PO7esT6X-363" value="index.ts" style="text;html=1;strokeColor=none;fillColor=none;align=center;verticalAlign=middle;whiteSpace=wrap;rounded=0;fontSize=22;" vertex="1" parent="1">
          <mxGeometry x="-330" y="760" width="130" height="30" as="geometry" />
        </mxCell>
        <mxCell id="_uhkkYRvlDr_PO7esT6X-364" value="" style="rounded=1;whiteSpace=wrap;html=1;fillColor=#dae8fc;strokeColor=#6c8ebf;" vertex="1" parent="1">
          <mxGeometry x="-530" y="870" width="150" height="90" as="geometry" />
        </mxCell>
        <mxCell id="_uhkkYRvlDr_PO7esT6X-365" value="perftTestings.ts" style="text;html=1;strokeColor=none;fillColor=none;align=center;verticalAlign=middle;whiteSpace=wrap;rounded=0;fontSize=21;" vertex="1" parent="1">
          <mxGeometry x="-520" y="900" width="130" height="30" as="geometry" />
        </mxCell>
        <mxCell id="_uhkkYRvlDr_PO7esT6X-416" style="edgeStyle=orthogonalEdgeStyle;rounded=0;orthogonalLoop=1;jettySize=auto;html=1;endArrow=none;endFill=0;" edge="1" parent="1" source="_uhkkYRvlDr_PO7esT6X-367">
          <mxGeometry relative="1" as="geometry">
            <mxPoint x="495" y="850" as="targetPoint" />
          </mxGeometry>
        </mxCell>
        <mxCell id="_uhkkYRvlDr_PO7esT6X-367" value="" style="rounded=1;whiteSpace=wrap;html=1;fillColor=#e1d5e7;strokeColor=#9673a6;" vertex="1" parent="1">
          <mxGeometry x="420" y="870" width="150" height="90" as="geometry" />
        </mxCell>
        <mxCell id="_uhkkYRvlDr_PO7esT6X-368" value="utils" style="text;html=1;strokeColor=none;fillColor=none;align=center;verticalAlign=middle;whiteSpace=wrap;rounded=0;fontSize=22;" vertex="1" parent="1">
          <mxGeometry x="430" y="900" width="130" height="30" as="geometry" />
        </mxCell>
        <mxCell id="_uhkkYRvlDr_PO7esT6X-387" style="edgeStyle=orthogonalEdgeStyle;rounded=0;orthogonalLoop=1;jettySize=auto;html=1;entryX=0.5;entryY=1;entryDx=0;entryDy=0;endArrow=none;endFill=0;" edge="1" parent="1" source="_uhkkYRvlDr_PO7esT6X-369" target="_uhkkYRvlDr_PO7esT6X-367">
          <mxGeometry relative="1" as="geometry" />
        </mxCell>
        <mxCell id="_uhkkYRvlDr_PO7esT6X-369" value="" style="rounded=1;whiteSpace=wrap;html=1;fillColor=#dae8fc;strokeColor=#6c8ebf;" vertex="1" parent="1">
          <mxGeometry x="330" y="1010" width="150" height="90" as="geometry" />
        </mxCell>
        <mxCell id="_uhkkYRvlDr_PO7esT6X-370" value="index.ts" style="text;html=1;strokeColor=none;fillColor=none;align=center;verticalAlign=middle;whiteSpace=wrap;rounded=0;fontSize=22;" vertex="1" parent="1">
          <mxGeometry x="340" y="1040" width="130" height="30" as="geometry" />
        </mxCell>
        <mxCell id="_uhkkYRvlDr_PO7esT6X-388" style="edgeStyle=orthogonalEdgeStyle;rounded=0;orthogonalLoop=1;jettySize=auto;html=1;entryX=0.5;entryY=1;entryDx=0;entryDy=0;endArrow=none;endFill=0;" edge="1" parent="1" source="_uhkkYRvlDr_PO7esT6X-371" target="_uhkkYRvlDr_PO7esT6X-367">
          <mxGeometry relative="1" as="geometry" />
        </mxCell>
        <mxCell id="_uhkkYRvlDr_PO7esT6X-371" value="" style="rounded=1;whiteSpace=wrap;html=1;fillColor=#e1d5e7;strokeColor=#9673a6;" vertex="1" parent="1">
          <mxGeometry x="520" y="1010" width="150" height="90" as="geometry" />
        </mxCell>
        <mxCell id="_uhkkYRvlDr_PO7esT6X-372" value="precalculations" style="text;html=1;strokeColor=none;fillColor=none;align=center;verticalAlign=middle;whiteSpace=wrap;rounded=0;fontSize=21;" vertex="1" parent="1">
          <mxGeometry x="530" y="1040" width="130" height="30" as="geometry" />
        </mxCell>
        <mxCell id="_uhkkYRvlDr_PO7esT6X-383" style="edgeStyle=orthogonalEdgeStyle;rounded=0;orthogonalLoop=1;jettySize=auto;html=1;entryX=0.5;entryY=1;entryDx=0;entryDy=0;endArrow=none;endFill=0;" edge="1" parent="1" source="_uhkkYRvlDr_PO7esT6X-375" target="_uhkkYRvlDr_PO7esT6X-371">
          <mxGeometry relative="1" as="geometry">
            <Array as="points">
              <mxPoint x="405" y="1130" />
              <mxPoint x="595" y="1130" />
            </Array>
          </mxGeometry>
        </mxCell>
        <mxCell id="_uhkkYRvlDr_PO7esT6X-375" value="" style="rounded=1;whiteSpace=wrap;html=1;fillColor=#fff2cc;strokeColor=#d6b656;" vertex="1" parent="1">
          <mxGeometry x="330" y="1150" width="150" height="90" as="geometry" />
        </mxCell>
        <mxCell id="_uhkkYRvlDr_PO7esT6X-376" value="knightMoves.js" style="text;html=1;strokeColor=none;fillColor=none;align=center;verticalAlign=middle;whiteSpace=wrap;rounded=0;fontSize=21;" vertex="1" parent="1">
          <mxGeometry x="340" y="1180" width="130" height="30" as="geometry" />
        </mxCell>
        <mxCell id="_uhkkYRvlDr_PO7esT6X-382" style="edgeStyle=orthogonalEdgeStyle;rounded=0;orthogonalLoop=1;jettySize=auto;html=1;entryX=0.5;entryY=1;entryDx=0;entryDy=0;endArrow=none;endFill=0;" edge="1" parent="1" source="_uhkkYRvlDr_PO7esT6X-377" target="_uhkkYRvlDr_PO7esT6X-371">
          <mxGeometry relative="1" as="geometry">
            <Array as="points">
              <mxPoint x="785" y="1130" />
              <mxPoint x="595" y="1130" />
            </Array>
          </mxGeometry>
        </mxCell>
        <mxCell id="_uhkkYRvlDr_PO7esT6X-377" value="" style="rounded=1;whiteSpace=wrap;html=1;fillColor=#fff2cc;strokeColor=#d6b656;" vertex="1" parent="1">
          <mxGeometry x="710" y="1150" width="150" height="90" as="geometry" />
        </mxCell>
        <mxCell id="_uhkkYRvlDr_PO7esT6X-378" value="&lt;div&gt;slidingPieces&lt;/div&gt;&lt;div&gt;Moves.js&lt;/div&gt;" style="text;html=1;strokeColor=none;fillColor=none;align=center;verticalAlign=middle;whiteSpace=wrap;rounded=0;fontSize=19;" vertex="1" parent="1">
          <mxGeometry x="720" y="1180" width="130" height="30" as="geometry" />
        </mxCell>
        <mxCell id="_uhkkYRvlDr_PO7esT6X-386" style="edgeStyle=orthogonalEdgeStyle;rounded=0;orthogonalLoop=1;jettySize=auto;html=1;endArrow=none;endFill=0;" edge="1" parent="1" source="_uhkkYRvlDr_PO7esT6X-379">
          <mxGeometry relative="1" as="geometry">
            <mxPoint x="595" y="1130" as="targetPoint" />
          </mxGeometry>
        </mxCell>
        <mxCell id="_uhkkYRvlDr_PO7esT6X-379" value="" style="rounded=1;whiteSpace=wrap;html=1;fillColor=#dae8fc;strokeColor=#6c8ebf;" vertex="1" parent="1">
          <mxGeometry x="520" y="1150" width="150" height="90" as="geometry" />
        </mxCell>
        <mxCell id="_uhkkYRvlDr_PO7esT6X-380" value="results.ts" style="text;html=1;strokeColor=none;fillColor=none;align=center;verticalAlign=middle;whiteSpace=wrap;rounded=0;fontSize=22;" vertex="1" parent="1">
          <mxGeometry x="530" y="1180" width="130" height="30" as="geometry" />
        </mxCell>
        <mxCell id="_uhkkYRvlDr_PO7esT6X-413" style="edgeStyle=orthogonalEdgeStyle;rounded=0;orthogonalLoop=1;jettySize=auto;html=1;endArrow=none;endFill=0;" edge="1" parent="1" source="_uhkkYRvlDr_PO7esT6X-389">
          <mxGeometry relative="1" as="geometry">
            <mxPoint x="315" y="850" as="targetPoint" />
          </mxGeometry>
        </mxCell>
        <mxCell id="_uhkkYRvlDr_PO7esT6X-389" value="" style="rounded=1;whiteSpace=wrap;html=1;fillColor=#dae8fc;strokeColor=#6c8ebf;" vertex="1" parent="1">
          <mxGeometry x="240" y="870" width="150" height="90" as="geometry" />
        </mxCell>
        <mxCell id="_uhkkYRvlDr_PO7esT6X-390" value="index.ts" style="text;html=1;strokeColor=none;fillColor=none;align=center;verticalAlign=middle;whiteSpace=wrap;rounded=0;fontSize=22;" vertex="1" parent="1">
          <mxGeometry x="250" y="900" width="130" height="30" as="geometry" />
        </mxCell>
        <mxCell id="_uhkkYRvlDr_PO7esT6X-412" style="edgeStyle=orthogonalEdgeStyle;rounded=0;orthogonalLoop=1;jettySize=auto;html=1;endArrow=none;endFill=0;" edge="1" parent="1" source="_uhkkYRvlDr_PO7esT6X-391">
          <mxGeometry relative="1" as="geometry">
            <mxPoint x="135" y="850" as="targetPoint" />
          </mxGeometry>
        </mxCell>
        <mxCell id="_uhkkYRvlDr_PO7esT6X-391" value="" style="rounded=1;whiteSpace=wrap;html=1;fillColor=#dae8fc;strokeColor=#6c8ebf;" vertex="1" parent="1">
          <mxGeometry x="60" y="870" width="150" height="90" as="geometry" />
        </mxCell>
        <mxCell id="_uhkkYRvlDr_PO7esT6X-392" value="BasePiece.ts" style="text;html=1;strokeColor=none;fillColor=none;align=center;verticalAlign=middle;whiteSpace=wrap;rounded=0;fontSize=22;" vertex="1" parent="1">
          <mxGeometry x="70" y="900" width="130" height="30" as="geometry" />
        </mxCell>
        <mxCell id="_uhkkYRvlDr_PO7esT6X-411" style="edgeStyle=orthogonalEdgeStyle;rounded=0;orthogonalLoop=1;jettySize=auto;html=1;endArrow=none;endFill=0;" edge="1" parent="1" source="_uhkkYRvlDr_PO7esT6X-393">
          <mxGeometry relative="1" as="geometry">
            <mxPoint x="-45" y="850" as="targetPoint" />
          </mxGeometry>
        </mxCell>
        <mxCell id="_uhkkYRvlDr_PO7esT6X-393" value="" style="rounded=1;whiteSpace=wrap;html=1;fillColor=#dae8fc;strokeColor=#6c8ebf;" vertex="1" parent="1">
          <mxGeometry x="-120" y="870" width="150" height="90" as="geometry" />
        </mxCell>
        <mxCell id="_uhkkYRvlDr_PO7esT6X-394" value="Empty.ts" style="text;html=1;strokeColor=none;fillColor=none;align=center;verticalAlign=middle;whiteSpace=wrap;rounded=0;fontSize=22;" vertex="1" parent="1">
          <mxGeometry x="-110" y="900" width="130" height="30" as="geometry" />
        </mxCell>
        <mxCell id="_uhkkYRvlDr_PO7esT6X-409" style="edgeStyle=orthogonalEdgeStyle;rounded=0;orthogonalLoop=1;jettySize=auto;html=1;entryX=0.5;entryY=1;entryDx=0;entryDy=0;endArrow=none;endFill=0;" edge="1" parent="1" source="_uhkkYRvlDr_PO7esT6X-395" target="_uhkkYRvlDr_PO7esT6X-335">
          <mxGeometry relative="1" as="geometry">
            <Array as="points">
              <mxPoint x="-225" y="850" />
              <mxPoint x="495" y="850" />
            </Array>
          </mxGeometry>
        </mxCell>
        <mxCell id="_uhkkYRvlDr_PO7esT6X-395" value="" style="rounded=1;whiteSpace=wrap;html=1;fillColor=#dae8fc;strokeColor=#6c8ebf;" vertex="1" parent="1">
          <mxGeometry x="-300" y="870" width="150" height="90" as="geometry" />
        </mxCell>
        <mxCell id="_uhkkYRvlDr_PO7esT6X-396" value="Queen.ts" style="text;html=1;strokeColor=none;fillColor=none;align=center;verticalAlign=middle;whiteSpace=wrap;rounded=0;fontSize=22;" vertex="1" parent="1">
          <mxGeometry x="-290" y="900" width="130" height="30" as="geometry" />
        </mxCell>
        <mxCell id="_uhkkYRvlDr_PO7esT6X-424" style="edgeStyle=orthogonalEdgeStyle;rounded=0;orthogonalLoop=1;jettySize=auto;html=1;endArrow=none;endFill=0;" edge="1" parent="1" source="_uhkkYRvlDr_PO7esT6X-397">
          <mxGeometry relative="1" as="geometry">
            <mxPoint x="675" y="850" as="targetPoint" />
          </mxGeometry>
        </mxCell>
        <mxCell id="_uhkkYRvlDr_PO7esT6X-397" value="" style="rounded=1;whiteSpace=wrap;html=1;fillColor=#dae8fc;strokeColor=#6c8ebf;" vertex="1" parent="1">
          <mxGeometry x="600" y="870" width="150" height="90" as="geometry" />
        </mxCell>
        <mxCell id="_uhkkYRvlDr_PO7esT6X-398" value="Knight.ts" style="text;html=1;strokeColor=none;fillColor=none;align=center;verticalAlign=middle;whiteSpace=wrap;rounded=0;fontSize=22;" vertex="1" parent="1">
          <mxGeometry x="610" y="900" width="130" height="30" as="geometry" />
        </mxCell>
        <mxCell id="_uhkkYRvlDr_PO7esT6X-423" style="edgeStyle=orthogonalEdgeStyle;rounded=0;orthogonalLoop=1;jettySize=auto;html=1;endArrow=none;endFill=0;" edge="1" parent="1" source="_uhkkYRvlDr_PO7esT6X-401">
          <mxGeometry relative="1" as="geometry">
            <mxPoint x="855" y="850" as="targetPoint" />
          </mxGeometry>
        </mxCell>
        <mxCell id="_uhkkYRvlDr_PO7esT6X-401" value="" style="rounded=1;whiteSpace=wrap;html=1;fillColor=#dae8fc;strokeColor=#6c8ebf;" vertex="1" parent="1">
          <mxGeometry x="780" y="870" width="150" height="90" as="geometry" />
        </mxCell>
        <mxCell id="_uhkkYRvlDr_PO7esT6X-402" value="King.ts" style="text;html=1;strokeColor=none;fillColor=none;align=center;verticalAlign=middle;whiteSpace=wrap;rounded=0;fontSize=22;" vertex="1" parent="1">
          <mxGeometry x="790" y="900" width="130" height="30" as="geometry" />
        </mxCell>
        <mxCell id="_uhkkYRvlDr_PO7esT6X-422" style="edgeStyle=orthogonalEdgeStyle;rounded=0;orthogonalLoop=1;jettySize=auto;html=1;endArrow=none;endFill=0;" edge="1" parent="1" source="_uhkkYRvlDr_PO7esT6X-403">
          <mxGeometry relative="1" as="geometry">
            <mxPoint x="1035" y="850" as="targetPoint" />
          </mxGeometry>
        </mxCell>
        <mxCell id="_uhkkYRvlDr_PO7esT6X-403" value="" style="rounded=1;whiteSpace=wrap;html=1;fillColor=#dae8fc;strokeColor=#6c8ebf;" vertex="1" parent="1">
          <mxGeometry x="960" y="870" width="150" height="90" as="geometry" />
        </mxCell>
        <mxCell id="_uhkkYRvlDr_PO7esT6X-404" value="Bishop.ts" style="text;html=1;strokeColor=none;fillColor=none;align=center;verticalAlign=middle;whiteSpace=wrap;rounded=0;fontSize=22;" vertex="1" parent="1">
          <mxGeometry x="970" y="900" width="130" height="30" as="geometry" />
        </mxCell>
        <mxCell id="_uhkkYRvlDr_PO7esT6X-421" style="edgeStyle=orthogonalEdgeStyle;rounded=0;orthogonalLoop=1;jettySize=auto;html=1;endArrow=none;endFill=0;" edge="1" parent="1" source="_uhkkYRvlDr_PO7esT6X-405">
          <mxGeometry relative="1" as="geometry">
            <mxPoint x="1215" y="850" as="targetPoint" />
          </mxGeometry>
        </mxCell>
        <mxCell id="_uhkkYRvlDr_PO7esT6X-405" value="" style="rounded=1;whiteSpace=wrap;html=1;fillColor=#dae8fc;strokeColor=#6c8ebf;" vertex="1" parent="1">
          <mxGeometry x="1140" y="870" width="150" height="90" as="geometry" />
        </mxCell>
        <mxCell id="_uhkkYRvlDr_PO7esT6X-406" value="Pawn.ts" style="text;html=1;strokeColor=none;fillColor=none;align=center;verticalAlign=middle;whiteSpace=wrap;rounded=0;fontSize=22;" vertex="1" parent="1">
          <mxGeometry x="1150" y="900" width="130" height="30" as="geometry" />
        </mxCell>
        <mxCell id="_uhkkYRvlDr_PO7esT6X-418" style="edgeStyle=orthogonalEdgeStyle;rounded=0;orthogonalLoop=1;jettySize=auto;html=1;entryX=0.5;entryY=1;entryDx=0;entryDy=0;endArrow=none;endFill=0;" edge="1" parent="1" source="_uhkkYRvlDr_PO7esT6X-407" target="_uhkkYRvlDr_PO7esT6X-335">
          <mxGeometry relative="1" as="geometry">
            <Array as="points">
              <mxPoint x="1395" y="850" />
              <mxPoint x="495" y="850" />
            </Array>
          </mxGeometry>
        </mxCell>
        <mxCell id="_uhkkYRvlDr_PO7esT6X-407" value="" style="rounded=1;whiteSpace=wrap;html=1;fillColor=#dae8fc;strokeColor=#6c8ebf;" vertex="1" parent="1">
          <mxGeometry x="1320" y="870" width="150" height="90" as="geometry" />
        </mxCell>
        <mxCell id="_uhkkYRvlDr_PO7esT6X-408" value="Rook.ts" style="text;html=1;strokeColor=none;fillColor=none;align=center;verticalAlign=middle;whiteSpace=wrap;rounded=0;fontSize=22;" vertex="1" parent="1">
          <mxGeometry x="1330" y="900" width="130" height="30" as="geometry" />
        </mxCell>
      </root>
    </mxGraphModel>
  </diagram>
</mxfile>
